<svg xmlns="http://www.w3.org/2000/svg" viewBox="0 0 181.723 72">
  <defs>
    <style>.cls-1{fill:#fdbb30;}.cls-2{fill:#f7941e;}.cls-3{fill:#f47925;}.cls-4{fill:#e56020;}.cls-5{fill:#fff;}</style>
  </defs>
  <title>wc_logo</title>
  <g id="Layer_2" data-name="Layer 2">
    <g id="WC_1a">
      <polygon class="cls-1" points="69.555 14.444 67.469 5.68 64.667 15.264 69.555 14.444"/>
      <polygon class="cls-1" points="49.103 8.764 47.017 0 0 7.892 9.927 49.583 20.453 13.573 49.103 8.764"/>
      <polygon class="cls-1" points="28.293 46.501 30.379 55.265 33.18 45.68 28.293 46.501"/>
      <polygon class="cls-1" points="69.555 14.444 77.394 47.371 87.922 11.36 69.555 14.444"/>
      <polygon class="cls-2" points="9.927 49.583 28.293 46.501 20.453 13.573 9.927 49.583"/>
      <polygon class="cls-2" points="64.667 15.264 67.469 5.68 49.103 8.764 51.189 17.528 64.667 15.264"/>
      <polygon class="cls-2" points="64.667 15.264 56.941 41.692 33.18 45.68 30.379 55.265 77.394 47.371 69.555 14.444 64.667 15.264"/>
      <polygon class="cls-3" points="40.905 19.253 51.189 17.528 49.103 8.764 20.453 13.573 28.293 46.501 33.18 45.68 40.905 19.253"/>
      <polygon class="cls-3" points="56.941 41.692 64.667 15.264 51.189 17.528 56.941 41.692"/>
      <polygon class="cls-4" points="40.905 19.253 33.18 45.68 56.941 41.692 51.189 17.528 40.905 19.253"/>
      <path class="cls-5" d="M75.943,71.6,73.282,61.561h-.058L70.679,71.6H66.427L61.685,56.643h4.338L68.77,66.794h.058l2.488-10.151h3.99l2.546,10.124h.058l2.748-10.124h4.222L80.165,71.6Z"/>
      <path class="cls-5" d="M89.383,68.01a4.209,4.209,0,0,0,4.8.275,2.577,2.577,0,0,0,1.1-1.316H98.9a6.858,6.858,0,0,1-2.662,3.846A7.823,7.823,0,0,1,91.9,71.971a8.54,8.54,0,0,1-3.18-.564,6.619,6.619,0,0,1-2.4-1.6A7.215,7.215,0,0,1,84.8,67.315a9.071,9.071,0,0,1-.535-3.18,8.725,8.725,0,0,1,.549-3.125,7.227,7.227,0,0,1,3.976-4.163,7.725,7.725,0,0,1,3.108-.608,7.09,7.09,0,0,1,3.325.737,6.66,6.66,0,0,1,2.33,1.982,8.164,8.164,0,0,1,1.316,2.834,10.644,10.644,0,0,1,.289,3.324H88.371A4.152,4.152,0,0,0,89.383,68.01Zm4.639-7.867a2.881,2.881,0,0,0-2.24-.808,3.574,3.574,0,0,0-1.633.331,3.146,3.146,0,0,0-1.041.823,3.028,3.028,0,0,0-.55,1.043,4.713,4.713,0,0,0-.187.981h6.68A4.734,4.734,0,0,0,94.023,60.143Z"/>
      <path class="cls-5" d="M104.847,51.547v6.917h.059a4.387,4.387,0,0,1,2.038-1.691,6.925,6.925,0,0,1,2.676-.535,5.685,5.685,0,0,1,4.205,1.88,7.278,7.278,0,0,1,1.434,2.443,11.722,11.722,0,0,1,0,7.086,7.276,7.276,0,0,1-1.434,2.443,5.684,5.684,0,0,1-4.205,1.88,7.867,7.867,0,0,1-2.952-.522,3.736,3.736,0,0,1-1.965-1.762h-.059V71.6h-3.9V51.547ZM111.5,62.311a4.744,4.744,0,0,0-.636-1.531,3.326,3.326,0,0,0-1.084-1.056,3.363,3.363,0,0,0-3.138,0,3.265,3.265,0,0,0-1.1,1.056,4.744,4.744,0,0,0-.636,1.531,7.932,7.932,0,0,0-.2,1.824,7.755,7.755,0,0,0,.2,1.791,4.735,4.735,0,0,0,.636,1.533,3.265,3.265,0,0,0,1.1,1.056,3.346,3.346,0,0,0,3.138,0,3.326,3.326,0,0,0,1.084-1.056,4.735,4.735,0,0,0,.636-1.533,7.755,7.755,0,0,0,.2-1.791A7.931,7.931,0,0,0,111.5,62.311Z"/>
      <path class="cls-5" d="M127.42,58.724a3.971,3.971,0,0,0-2.834-.954,4.616,4.616,0,0,0-2.285.55,4.994,4.994,0,0,0-1.633,1.447,6.6,6.6,0,0,0-.984,2.037,8.341,8.341,0,0,0,0,4.658,6.576,6.576,0,0,0,.984,2.037,5,5,0,0,0,1.633,1.447,4.618,4.618,0,0,0,2.285.55,4.062,4.062,0,0,0,1.591-.317,4.313,4.313,0,0,0,1.33-.883,4.756,4.756,0,0,0,.955-1.345,4.97,4.97,0,0,0,.462-1.707h1.823a6.9,6.9,0,0,1-2,4.237A5.851,5.851,0,0,1,124.586,72a6.99,6.99,0,0,1-3.021-.621,6.442,6.442,0,0,1-2.213-1.691,7.347,7.347,0,0,1-1.358-2.5,10.27,10.27,0,0,1,0-6.1,7.356,7.356,0,0,1,1.358-2.5,6.621,6.621,0,0,1,2.213-1.707,6.867,6.867,0,0,1,3.021-.635,6.5,6.5,0,0,1,4.065,1.272,5.436,5.436,0,0,1,1.98,3.848h-1.821A5.012,5.012,0,0,0,127.42,58.724Z"/>
      <path class="cls-5" d="M134.429,51.547v7.7h.057a4.383,4.383,0,0,1,1.852-2.184,5.439,5.439,0,0,1,2.921-.823,7.339,7.339,0,0,1,2.618.4,4.156,4.156,0,0,1,1.692,1.143,4.236,4.236,0,0,1,.894,1.807,10.162,10.162,0,0,1,.261,2.4v9.6H142.9V62.282a8.735,8.735,0,0,0-.173-1.778,3.755,3.755,0,0,0-.608-1.431,2.936,2.936,0,0,0-1.172-.954,4.27,4.27,0,0,0-1.835-.348,4.648,4.648,0,0,0-1.952.391,4.224,4.224,0,0,0-1.447,1.072,4.936,4.936,0,0,0-.925,1.62,6.6,6.6,0,0,0-.359,2.037V71.6h-1.824V51.547Z"/>
      <path class="cls-5" d="M147.69,58.986a4.261,4.261,0,0,1,1.256-1.56,5.327,5.327,0,0,1,1.866-.9,9.073,9.073,0,0,1,2.37-.288,10.358,10.358,0,0,1,1.967.189,4.736,4.736,0,0,1,1.765.708,3.855,3.855,0,0,1,1.272,1.46,5.29,5.29,0,0,1,.492,2.443v7.925a.959.959,0,0,0,1.071,1.1,1.407,1.407,0,0,0,.579-.115v1.531c-.214.04-.4.069-.565.089a5.377,5.377,0,0,1-.621.029,2.76,2.76,0,0,1-1.113-.189,1.494,1.494,0,0,1-.653-.535,1.993,1.993,0,0,1-.3-.825A7.266,7.266,0,0,1,157,68.993h-.057a12.615,12.615,0,0,1-1,1.287,4.934,4.934,0,0,1-1.127.939,5.238,5.238,0,0,1-1.416.579,7.765,7.765,0,0,1-1.9.2,7.456,7.456,0,0,1-1.953-.246,4.348,4.348,0,0,1-1.591-.781,3.7,3.7,0,0,1-1.069-1.358,4.5,4.5,0,0,1-.391-1.953,3.857,3.857,0,0,1,.694-2.443,4.355,4.355,0,0,1,1.836-1.345,10.527,10.527,0,0,1,2.574-.65q1.43-.19,2.907-.362c.384-.038.722-.086,1.012-.144a1.736,1.736,0,0,0,.722-.3,1.393,1.393,0,0,0,.447-.593,2.561,2.561,0,0,0,.16-.983,3.327,3.327,0,0,0-.3-1.518,2.417,2.417,0,0,0-.838-.941,3.4,3.4,0,0,0-1.246-.477,8.424,8.424,0,0,0-1.518-.131,4.6,4.6,0,0,0-2.833.825,3.231,3.231,0,0,0-1.158,2.648h-1.822A6.08,6.08,0,0,1,147.69,58.986ZM156.8,63.44a1.033,1.033,0,0,1-.664.462,6.555,6.555,0,0,1-.869.2q-1.157.2-2.386.364a13.069,13.069,0,0,0-2.241.475,4.407,4.407,0,0,0-1.663.912,2.175,2.175,0,0,0-.65,1.691,2.641,2.641,0,0,0,.276,1.229,2.946,2.946,0,0,0,.736.925,3.206,3.206,0,0,0,1.072.593,3.89,3.89,0,0,0,1.242.2,6.3,6.3,0,0,0,2-.317,4.933,4.933,0,0,0,1.665-.928,4.394,4.394,0,0,0,1.546-3.442V63.44Z"/>
      <path class="cls-5" d="M176.92,58.292V56.47h-3.036V52.792h-1.822V56.47h-2.6a5.652,5.652,0,0,0-3.485.9,5.751,5.751,0,0,0-2.154,2.805h-.059v-3.5h-1.676V71.6h1.822V63.642a5.744,5.744,0,0,1,.4-2.184,4.989,4.989,0,0,1,1.141-1.72,5.087,5.087,0,0,1,1.752-1.114,5.2,5.2,0,0,1,1.64-.333h3.217V68.414a3.56,3.56,0,0,0,.695,2.616,3.588,3.588,0,0,0,2.544.71c.271,0,.542-.011.81-.029s.54-.029.809-.029V70.149a14.115,14.115,0,0,1-1.56.087q-.985-.057-1.228-.564a3.239,3.239,0,0,1-.247-1.4V58.292Z"/>
      <path class="cls-5" d="M180.692,68.467a1.682,1.682,0,0,1,.54.362,1.757,1.757,0,0,1,.36,1.883,1.7,1.7,0,0,1-.36.538,1.678,1.678,0,0,1-.54.36,1.8,1.8,0,0,1-1.347,0,1.652,1.652,0,0,1-.9-.9,1.738,1.738,0,0,1,.36-1.883,1.682,1.682,0,0,1,.54-.362,1.813,1.813,0,0,1,1.347,0Zm-1.248.227a1.408,1.408,0,0,0-.456.311,1.446,1.446,0,0,0-.3.463,1.562,1.562,0,0,0,0,1.145,1.439,1.439,0,0,0,2.357.463,1.444,1.444,0,0,0,.3-.463,1.5,1.5,0,0,0-.3-1.608,1.425,1.425,0,0,0-1.026-.425A1.423,1.423,0,0,0,179.443,68.694Zm-.043,2.331V69.055h.756a.707.707,0,0,1,.488.141.521.521,0,0,1,.152.405.611.611,0,0,1-.038.225.487.487,0,0,1-.108.162.551.551,0,0,1-.159.105.9.9,0,0,1-.19.057l.587.875H180.6l-.554-.875h-.408v.875Zm.781-1.089a.643.643,0,0,0,.19-.039.284.284,0,0,0,.133-.1.4.4,0,0,0,.011-.364.3.3,0,0,0-.105-.1.435.435,0,0,0-.15-.052,1.063,1.063,0,0,0-.173-.013h-.445v.682h.322C180.036,69.945,180.109,69.943,180.181,69.937Z"/>
    </g>
  </g>
</svg>