<svg xmlns="http://www.w3.org/2000/svg" xmlns:xlink="http://www.w3.org/1999/xlink" viewBox="0 0 240.86 121.16"><defs><style>.cls-1{fill:#fff;}.cls-2{fill:url(#linear-gradient);}.cls-3{fill:#e46020;}.cls-4{fill:url(#linear-gradient-2);}</style><linearGradient id="linear-gradient" x1="34.9" y1="44.87" x2="240.61" y2="44.87" gradientUnits="userSpaceOnUse"><stop offset="0" stop-color="#fff"/><stop offset="0.12" stop-color="#fbfbfb" stop-opacity="0.99"/><stop offset="0.25" stop-color="#f1f0f0" stop-opacity="0.94"/><stop offset="0.38" stop-color="#dfdede" stop-opacity="0.87"/><stop offset="0.5" stop-color="#c5c4c5" stop-opacity="0.76"/><stop offset="0.63" stop-color="#a5a3a4" stop-opacity="0.63"/><stop offset="0.76" stop-color="#7d7b7b" stop-opacity="0.47"/><stop offset="0.89" stop-color="#4f4c4d" stop-opacity="0.28"/><stop offset="1" stop-color="#231f20" stop-opacity="0.1"/></linearGradient><linearGradient id="linear-gradient-2" x1="191.86" y1="66.24" x2="240.64" y2="66.24" gradientUnits="userSpaceOnUse"><stop offset="0" stop-color="#c9c9c9" stop-opacity="0.4"/><stop offset="0.02" stop-color="#cdcdcd" stop-opacity="0.45"/><stop offset="0.08" stop-color="#d9d9d9" stop-opacity="0.57"/><stop offset="0.14" stop-color="#e3e3e3" stop-opacity="0.69"/><stop offset="0.21" stop-color="#ececec" stop-opacity="0.79"/><stop offset="0.29" stop-color="#f3f3f3" stop-opacity="0.87"/><stop offset="0.38" stop-color="#f8f8f8" stop-opacity="0.93"/><stop offset="0.49" stop-color="#fcfcfc" stop-opacity="0.97"/><stop offset="0.64" stop-color="#fefefe" stop-opacity="0.99"/><stop offset="1" stop-color="#fff"/></linearGradient></defs><title>logo_1</title><g id="Layer_2" data-name="Layer 2"><g id="Layer_1-2" data-name="Layer 1"><path class="cls-1" d="M74.56,106.17c0,11.47,11.3,7.3,11.3,12.16,0,1.22-.35,2.79-2.61,2.79-3.31,0-7.13-.7-15-.7-9.73,0-13.38.7-15.81.7-2.26,0-3.13-.7-3.13-2.26,0-4,6.78-2.09,6.78-11.3V76.8c0-16.69-5.91-20-13.73-20-10.43,0-12.87,8-12.87,10.26v39.45c0,11.12,11.65,6.43,11.65,12.34,0,2.78-4,2.26-6.08,2.26-5.57,0-10.95-.7-16.51-.7-4.17,0-8.52.7-12,.7-3,0-4,.52-4-2.44,0-4.34,8.51-1.39,8.51-9.38V64.81C11.12,56.46,0,61.33,0,56.46c0-2.78,2.61-3,8.69-4.51,14.6-3.31,16.68-7.48,18.77-7.48s2.08,1.22,2.08,3.48v8.69c5.74-5.91,12.69-10.78,22.25-10.78,8.86,0,15.47,5,20.34,12,4.17-5.56,12.33-12,23.46-12,20,0,24,12.69,24,31.29v29.37c0,10.08,11,6.77,11,11.64,0,3.3-2.78,3-5.21,3-3.48,0-7-.7-10.43-.7-6.26,0-13.91.7-16.68.7s-4-.35-4-2.61c0-3,7-3.48,7-8.34V78.88c0-10.25-.17-22.76-13.9-22.76C73,56.12,74.56,71.93,74.56,74Z"/><path class="cls-1" d="M145.29,64.81c0-8.35-11.12-3.48-11.12-8.35,0-2.78,2.61-3,8.69-4.51,14.6-3.31,16.68-7.48,18.77-7.48s2.08,1.22,2.08,3.48v58.57c0,11.12,12.69,6.43,12.69,12.34,0,2.78-5,2.26-7.13,2.26-5.56,0-10.94-.7-16.5-.7-4.18,0-8.52.7-12.87.7-3,0-4.86.52-4.86-2.43,0-4.35,10.25-1.39,10.25-9.39Z"/><path class="cls-1" d="M191.76,77.8c-.2-.44-.08-8.7-.08-10.31,0-8,3.82-18.25,14.25-18.25,10.95,0,11.91,11.39,11.91,14.06,0,1.26,4.35,10.79,4.2,11.46,0,3.07,1.44,2.85.66,7.24l13.46-8c1,0,2.09.63,2.09-3.19,0-9-7.12-26.59-30.41-26.59-22.42,0-33.72,21.73-33.72,41.71,0,23.81,17,34.77,34.24,34.77,17.9,0,32.5-13.74,32.5-18.08,0-1.91-1-2.09-1.73-2.09-2.79,0-11.3,9.21-21.56,9.21-15.12,0-25.72-13.56-25.72-28.5"/><path class="cls-2" d="M146.68,10.72C90.09-4.07,40.22-.77,35.29,18.1S72.24,64.24,128.83,79s106.46,11.49,111.39-7.38S203.27,25.5,146.68,10.72Zm-17,64.91C85.7,64.13,53.62,41,58.06,24.05s43.72-21.45,87.73-9.94,76.1,34.59,71.66,51.58S173.73,87.13,129.72,75.63Z"/><path class="cls-1" d="M58.06,24.05c4.44-17,43.72-21.45,87.73-9.94q4.46,1.16,8.73,2.48a10.41,10.41,0,0,0,1.38-3.31c-3-.89-6.1-1.75-9.22-2.56C90.73-3.91,41.38-.83,35.51,17.47a86.39,86.39,0,0,1,22.46,7C58,24.36,58,24.2,58.06,24.05Z"/><path class="cls-3" d="M154.09,15.06a2,2,0,1,1,.09-2.87A2,2,0,0,1,154.09,15.06Z"/><path class="cls-3" d="M158.05,19.26a7.8,7.8,0,1,1,.33-11A7.8,7.8,0,0,1,158.05,19.26Z"/><path class="cls-3" d="M162,23.47a13.58,13.58,0,1,1,.58-19.2A13.59,13.59,0,0,1,162,23.47Z"/><path class="cls-4" d="M207.47,44.18s2.45,5,5.37,6.7c2.37,1.51,17.52,23.5-21,30,0,0,.45,7,.7,7.36,7.84.35,45.4-.21,48-18.06a15,15,0,0,0-.95-7C231.43,46,220.18,44.18,207.47,44.18Z"/></g></g></svg>