<svg version="1.1" viewBox="0.0 0.0 768.0 480.0" fill="none" stroke="none" stroke-linecap="square" stroke-miterlimit="10" xmlns:xlink="http://www.w3.org/1999/xlink" xmlns="http://www.w3.org/2000/svg">
  <clipPath id="p.0">
    <path d="m0 0l768.0 0l0 480.0l-768.0 0l0 -480.0z" clip-rule="nonzero"/>
  </clipPath>
  <g clip-path="url(#p.0)">
    <path fill="#000000" fill-opacity="0.0" d="m0 0l768.0 0l0 480.0l-768.0 0z" fill-rule="evenodd"/>
    <path fill="#faf7f3" d="m50.520447 421.05075l704.8819 0l0 45.07086l-704.8819 0z" fill-rule="evenodd"/>
    <path fill="#faf7f3" d="m50.520447 359.32196l704.8819 0l0 45.07086l-704.8819 0z" fill-rule="evenodd"/>
    <path fill="#faf7f3" d="m50.520447 300.89587l704.8819 0l0 45.070892l-704.8819 0z" fill-rule="evenodd"/>
    <path fill="#faf7f3" d="m50.520447 239.55293l704.8819 0l0 45.070877l-704.8819 0z" fill-rule="evenodd"/>
    <path fill="#faf7f3" d="m50.520447 180.87663l704.8819 0l0 45.070877l-704.8819 0z" fill-rule="evenodd"/>
    <path fill="#fce5cd" d="m50.520447 120.94401l704.8819 0l0 45.07087l-704.8819 0z" fill-rule="evenodd"/>
    <path fill="#fce5cd" d="m50.520447 66.20473l704.8819 0l0 45.07086l-704.8819 0z" fill-rule="evenodd"/>
    <path fill="#6cb33f" d="m54.99079 13.636045l704.8819 0l0 45.07087l-704.8819 0z" fill-rule="evenodd"/>
    <path fill="#ffffff" d="m60.95954 42.711475l0 -17.187498l11.59375 0l0 2.03125l-9.3125 0l0 5.328123l8.0625 0l0 2.015625l-8.0625 0l0 7.8125l-2.28125 0zm14.285156 -14.749998l0 -2.4375l2.109375 0l0 2.4375l-2.109375 0zm0 14.749998l0 -12.453123l2.109375 0l0 12.453123l-2.109375 0zm5.3164062 0l0 -12.453123l1.90625 0l0 1.7812481q1.375 -2.062498 3.953125 -2.062498q1.125 0 2.0625 0.40625q0.953125 0.40625 1.421875 1.0625q0.46875 0.6562481 0.65625 1.5624981q0.125 0.578125 0.125 2.046875l0 7.65625l-2.109375 0l0 -7.578125q0 -1.28125 -0.25 -1.921875q-0.25 -0.640625 -0.875 -1.015625q-0.625 -0.3906231 -1.46875 -0.3906231q-1.34375 0 -2.328125 0.8593731q-0.984375 0.859375 -0.984375 3.25l0 6.796875l-2.109375 0zm21.472656 -1.53125q-1.171875 0.984375 -2.265625 1.40625q-1.078125 0.40625 -2.3125 0.40625q-2.046875 0 -3.15625 -1.0q-1.09375 -1.0 -1.09375 -2.5625q0 -0.921875 0.40625 -1.671875q0.421875 -0.75 1.09375 -1.203125q0.671875 -0.46875 1.515625 -0.703125q0.625 -0.15625 1.875 -0.3125q2.5625 -0.3125 3.765625 -0.734375q0.015625 -0.421875 0.015625 -0.546875q0 -1.28125 -0.609375 -1.8125q-0.796875 -0.7187481 -2.390625 -0.7187481q-1.5 0 -2.203125 0.5312481q-0.703125 0.515625 -1.046875 1.84375l-2.0625 -0.28125q0.28125 -1.328125 0.921875 -2.140623q0.640625 -0.8125 1.859375 -1.25q1.21875 -0.453125 2.828125 -0.453125q1.59375 0 2.59375 0.375q1.0 0.375 1.46875 0.953125q0.46875 0.5625 0.65625 1.4374981q0.09375 0.53125 0.09375 1.9375l0 2.8125q0 2.9375 0.140625 3.71875q0.140625 0.78125 0.53125 1.5l-2.203125 0q-0.328125 -0.65625 -0.421875 -1.53125zm-0.171875 -4.71875q-1.15625 0.46875 -3.453125 0.796875q-1.296875 0.1875 -1.84375 0.421875q-0.53125 0.234375 -0.828125 0.6875q-0.28125 0.453125 -0.28125 1.0q0 0.84375 0.625 1.40625q0.640625 0.5625 1.875 0.5625q1.21875 0 2.171875 -0.53125q0.953125 -0.53125 1.390625 -1.453125q0.34375 -0.71875 0.34375 -2.109375l0 -0.78125zm5.3945312 6.25l0 -12.453123l1.90625 0l0 1.7812481q1.375 -2.062498 3.953125 -2.062498q1.125 0 2.0625 0.40625q0.953125 0.40625 1.421875 1.0625q0.46875 0.6562481 0.65625 1.5624981q0.125 0.578125 0.125 2.046875l0 7.65625l-2.109375 0l0 -7.578125q0 -1.28125 -0.25 -1.921875q-0.25 -0.640625 -0.875 -1.015625q-0.625 -0.3906231 -1.46875 -0.3906231q-1.34375 0 -2.328125 0.8593731q-0.984375 0.859375 -0.984375 3.25l0 6.796875l-2.109375 0zm21.472649 -4.5625l2.078125 0.265625q-0.34375 2.15625 -1.75 3.375q-1.3906174 1.203125 -3.4374924 1.203125q-2.546875 0 -4.109375 -1.671875q-1.546875 -1.671875 -1.546875 -4.78125q0 -2.015625 0.671875 -3.53125q0.671875 -1.5156231 2.03125 -2.265623q1.359375 -0.765625 2.96875 -0.765625q2.03125 0 3.3124924 1.03125q1.296875 1.0312481 1.65625 2.906248l-2.046875 0.328125q-0.296875 -1.265625 -1.0468674 -1.890625q-0.734375 -0.6406231 -1.796875 -0.6406231q-1.59375 0 -2.59375 1.1562481q-0.984375 1.140625 -0.984375 3.609375q0 2.5 0.953125 3.640625q0.96875 1.140625 2.515625 1.140625q1.234375 0 2.0625 -0.765625q0.8437424 -0.765625 1.0624924 -2.34375zm3.890625 -10.187498l0 -2.4375l2.109375 0l0 2.4375l-2.109375 0zm0 14.749998l0 -12.453123l2.109375 0l0 12.453123l-2.109375 0zm13.441406 -1.53125q-1.171875 0.984375 -2.265625 1.40625q-1.078125 0.40625 -2.3125 0.40625q-2.046875 0 -3.15625 -1.0q-1.09375 -1.0 -1.09375 -2.5625q0 -0.921875 0.40625 -1.671875q0.421875 -0.75 1.09375 -1.203125q0.671875 -0.46875 1.515625 -0.703125q0.625 -0.15625 1.875 -0.3125q2.5625 -0.3125 3.765625 -0.734375q0.015625 -0.421875 0.015625 -0.546875q0 -1.28125 -0.609375 -1.8125q-0.796875 -0.7187481 -2.390625 -0.7187481q-1.5 0 -2.203125 0.5312481q-0.703125 0.515625 -1.046875 1.84375l-2.0625 -0.28125q0.28125 -1.328125 0.921875 -2.140623q0.640625 -0.8125 1.859375 -1.25q1.21875 -0.453125 2.828125 -0.453125q1.59375 0 2.59375 0.375q1.0 0.375 1.46875 0.953125q0.46875 0.5625 0.65625 1.4374981q0.09375 0.53125 0.09375 1.9375l0 2.8125q0 2.9375 0.140625 3.71875q0.140625 0.78125 0.53125 1.5l-2.203125 0q-0.328125 -0.65625 -0.421875 -1.53125zm-0.171875 -4.71875q-1.15625 0.46875 -3.453125 0.796875q-1.296875 0.1875 -1.84375 0.421875q-0.53125 0.234375 -0.828125 0.6875q-0.28125 0.453125 -0.28125 1.0q0 0.84375 0.625 1.40625q0.640625 0.5625 1.875 0.5625q1.21875 0 2.171875 -0.53125q0.953125 -0.53125 1.390625 -1.453125q0.34375 -0.71875 0.34375 -2.109375l0 -0.78125zm5.3476562 6.25l0 -17.187498l2.109375 0l0 17.187498l-2.109375 0zm24.578125 -6.03125l2.28125 0.578125q-0.71875 2.796875 -2.578125 4.28125q-1.859375 1.46875 -4.546875 1.46875q-2.765625 0 -4.515625 -1.125q-1.734375 -1.140625 -2.640625 -3.28125q-0.90625 -2.15625 -0.90625 -4.609375q0 -2.687498 1.015625 -4.687498q1.03125 -2.0 2.921875 -3.03125q1.890625 -1.03125 4.171875 -1.03125q2.578125 0 4.328125 1.3125q1.765625 1.3125 2.453125 3.6875l-2.234375 0.53125q-0.609375 -1.875 -1.75 -2.734375q-1.125 -0.859375 -2.84375 -0.859375q-1.984375 0 -3.3125 0.953125q-1.328125 0.953125 -1.875 2.546875q-0.53125 1.5937481 -0.53125 3.296873q0 2.1875 0.625 3.828125q0.640625 1.640625 1.984375 2.453125q1.359375 0.796875 2.921875 0.796875q1.921875 0 3.234375 -1.09375q1.328125 -1.109375 1.796875 -3.28125zm4.0195312 -0.1875q0 -3.46875 1.921875 -5.124998q1.609375 -1.390625 3.921875 -1.390625q2.5625 0 4.1875 1.6875q1.625 1.6874981 1.625 4.640623q0 2.40625 -0.71875 3.78125q-0.71875 1.375 -2.09375 2.140625q-1.375 0.765625 -3.0 0.765625q-2.625 0 -4.234375 -1.671875q-1.609375 -1.6875 -1.609375 -4.828125zm2.171875 0q0 2.390625 1.03125 3.578125q1.046875 1.1875 2.640625 1.1875q1.5625 0 2.609375 -1.1875q1.046875 -1.203125 1.046875 -3.65625q0 -2.3125 -1.0625 -3.5q-1.046875 -1.1874981 -2.59375 -1.1874981q-1.59375 0 -2.640625 1.1874981q-1.03125 1.1875 -1.03125 3.578125zm11.957031 6.21875l0 -12.453123l1.90625 0l0 1.7812481q1.375 -2.062498 3.953125 -2.062498q1.125 0 2.0625 0.40625q0.953125 0.40625 1.421875 1.0625q0.46875 0.6562481 0.65625 1.5624981q0.125 0.578125 0.125 2.046875l0 7.65625l-2.109375 0l0 -7.578125q0 -1.28125 -0.25 -1.921875q-0.25 -0.640625 -0.875 -1.015625q-0.625 -0.3906231 -1.46875 -0.3906231q-1.34375 0 -2.328125 0.8593731q-0.984375 0.859375 -0.984375 3.25l0 6.796875l-2.109375 0zm17.957031 -1.890625l0.3125 1.859375q-0.890625 0.203125 -1.59375 0.203125q-1.15625 0 -1.796875 -0.359375q-0.625 -0.375 -0.890625 -0.96875q-0.25 -0.59375 -0.25 -2.484375l0 -7.171873l-1.546875 0l0 -1.640625l1.546875 0l0 -3.078125l2.09375 -1.265625l0 4.34375l2.125 0l0 1.640625l-2.125 0l0 7.281248q0 0.90625 0.109375 1.171875q0.125 0.25 0.375 0.40625q0.25 0.140625 0.71875 0.140625q0.34375 0 0.921875 -0.078125zm2.0429688 1.890625l0 -12.453123l1.890625 0l0 1.8906231q0.734375 -1.3281231 1.34375 -1.7499981q0.625 -0.421875 1.359375 -0.421875q1.0625 0 2.171875 0.6875l-0.734375 1.9531231q-0.765625 -0.453125 -1.546875 -0.453125q-0.6875 0 -1.25 0.421875q-0.546875 0.40625 -0.78125 1.140625q-0.34375 1.125 -0.34375 2.46875l0 6.515625l-2.109375 0zm16.132812 -1.53125q-1.171875 0.984375 -2.265625 1.40625q-1.078125 0.40625 -2.3125 0.40625q-2.046875 0 -3.15625 -1.0q-1.09375 -1.0 -1.09375 -2.5625q0 -0.921875 0.40625 -1.671875q0.421875 -0.75 1.09375 -1.203125q0.671875 -0.46875 1.515625 -0.703125q0.625 -0.15625 1.875 -0.3125q2.5625 -0.3125 3.765625 -0.734375q0.015625 -0.421875 0.015625 -0.546875q0 -1.28125 -0.609375 -1.8125q-0.796875 -0.7187481 -2.390625 -0.7187481q-1.5 0 -2.203125 0.5312481q-0.703125 0.515625 -1.046875 1.84375l-2.0625 -0.28125q0.28125 -1.328125 0.921875 -2.140623q0.640625 -0.8125 1.859375 -1.25q1.21875 -0.453125 2.828125 -0.453125q1.59375 0 2.59375 0.375q1.0 0.375 1.46875 0.953125q0.46875 0.5625 0.65625 1.4374981q0.09375 0.53125 0.09375 1.9375l0 2.8125q0 2.9375 0.140625 3.71875q0.140625 0.78125 0.53125 1.5l-2.203125 0q-0.328125 -0.65625 -0.421875 -1.53125zm-0.171875 -4.71875q-1.15625 0.46875 -3.453125 0.796875q-1.296875 0.1875 -1.84375 0.421875q-0.53125 0.234375 -0.828125 0.6875q-0.28125 0.453125 -0.28125 1.0q0 0.84375 0.625 1.40625q0.640625 0.5625 1.875 0.5625q1.21875 0 2.171875 -0.53125q0.953125 -0.53125 1.390625 -1.453125q0.34375 -0.71875 0.34375 -2.109375l0 -0.78125zm13.519531 1.6875l2.078125 0.265625q-0.34375 2.15625 -1.75 3.375q-1.390625 1.203125 -3.4375 1.203125q-2.546875 0 -4.109375 -1.671875q-1.546875 -1.671875 -1.546875 -4.78125q0 -2.015625 0.671875 -3.53125q0.671875 -1.5156231 2.03125 -2.265623q1.359375 -0.765625 2.96875 -0.765625q2.03125 0 3.3125 1.03125q1.296875 1.0312481 1.65625 2.906248l-2.046875 0.328125q-0.296875 -1.265625 -1.046875 -1.890625q-0.734375 -0.6406231 -1.796875 -0.6406231q-1.59375 0 -2.59375 1.1562481q-0.984375 1.140625 -0.984375 3.609375q0 2.5 0.953125 3.640625q0.96875 1.140625 2.515625 1.140625q1.234375 0 2.0625 -0.765625q0.84375 -0.765625 1.0625 -2.34375zm8.484375 2.671875l0.3125 1.859375q-0.890625 0.203125 -1.59375 0.203125q-1.15625 0 -1.796875 -0.359375q-0.625 -0.375 -0.890625 -0.96875q-0.25 -0.59375 -0.25 -2.484375l0 -7.171873l-1.546875 0l0 -1.640625l1.546875 0l0 -3.078125l2.09375 -1.265625l0 4.34375l2.125 0l0 1.640625l-2.125 0l0 7.281248q0 0.90625 0.109375 1.171875q0.125 0.25 0.375 0.40625q0.25 0.140625 0.71875 0.140625q0.34375 0 0.921875 -0.078125zm2.0742188 -12.859373l0 -2.4375l2.109375 0l0 2.4375l-2.109375 0zm0 14.749998l0 -12.453123l2.109375 0l0 12.453123l-2.109375 0zm5.3164062 0l0 -12.453123l1.90625 0l0 1.7812481q1.375 -2.062498 3.953125 -2.062498q1.125 0 2.0625 0.40625q0.953125 0.40625 1.421875 1.0625q0.46875 0.6562481 0.65625 1.5624981q0.125 0.578125 0.125 2.046875l0 7.65625l-2.109375 0l0 -7.578125q0 -1.28125 -0.25 -1.921875q-0.25 -0.640625 -0.875 -1.015625q-0.625 -0.3906231 -1.46875 -0.3906231q-1.34375 0 -2.328125 0.8593731q-0.984375 0.859375 -0.984375 3.25l0 6.796875l-2.109375 0zm12.972656 1.03125l2.046875 0.3125q0.125 0.9375 0.71875 1.375q0.78125 0.59375 2.140625 0.59375q1.46875 0 2.265625 -0.59375q0.796875 -0.578125 1.078125 -1.640625q0.15625 -0.640625 0.140625 -2.703125q-1.375 1.625 -3.4375 1.625q-2.5625 0 -3.96875 -1.84375q-1.40625 -1.859375 -1.40625 -4.453125q0 -1.78125 0.640625 -3.28125q0.640625 -1.5156231 1.859375 -2.328123q1.234375 -0.828125 2.890625 -0.828125q2.203125 0 3.625 1.78125l0 -1.5l1.953125 0l0 10.765623q0 2.90625 -0.59375 4.109375q-0.59375 1.21875 -1.875 1.921875q-1.28125 0.703125 -3.15625 0.703125q-2.234375 0 -3.609375 -1.0q-1.359375 -1.0 -1.3125 -3.015625zm1.734375 -7.484375q0 2.453125 0.96875 3.578125q0.984375 1.125 2.453125 1.125q1.453125 0 2.4375 -1.109375q0.984375 -1.125 0.984375 -3.515625q0 -2.28125 -1.015625 -3.4375q-1.015625 -1.1718731 -2.453125 -1.1718731q-1.40625 0 -2.390625 1.1406231q-0.984375 1.140625 -0.984375 3.390625z" fill-rule="nonzero"/>
    <path fill="#fce5cd" d="m12.619426 115.019165l0 -52.566933l23.11811 0l0 52.566933z" fill-rule="evenodd"/>
    <path fill="#000000" d="m24.328482 94.44942l0.296875 -0.9375q0.78125 0.21875 1.15625 0.71875q0.375 0.5 0.375 1.265625q0 0.953125 -0.640625 1.5625q-0.65625 0.609375 -1.78125 0.609375q-1.1875 0 -1.84375 -0.609375q-0.65625 -0.625 -0.65625 -1.625q0 -0.875 0.515625 -1.421875q0.296875 -0.328125 0.875 -0.484375l0.234375 0.953125q-0.375 0.078125 -0.59375 0.359375q-0.21875 0.265625 -0.21875 0.640625q0 0.53125 0.390625 0.859375q0.375 0.328125 1.234375 0.328125q0.890625 0 1.28125 -0.3125q0.390625 -0.328125 0.390625 -0.859375q0 -0.375 -0.25 -0.640625q-0.25 -0.28125 -0.765625 -0.40625zm1.75 -1.7600555l-4.765625 0l0 -0.90625l4.765625 0l0 0.90625zm-3.921875 -1.8493195l-0.84375 0l0 -0.90625l0.84375 0l0 0.90625zm3.921875 0l-3.453125 0l0 -0.90625l3.453125 0l0 0.90625zm-1.09375 -3.8493195l0.140625 -0.90625q0.515625 0.171875 0.78125 0.5625q0.25 0.375 0.25 0.9375q0 0.90625 -0.59375 1.34375q-0.46875 0.328125 -1.1875 0.328125q-0.859375 0 -1.34375 -0.4375q-0.484375 -0.453125 -0.484375 -1.140625q0 -0.765625 0.515625 -1.203125q0.5 -0.453125 1.546875 -0.4375l0 2.296875q0.40625 -0.015625 0.640625 -0.21875q0.21875 -0.21875 0.21875 -0.53125q0 -0.21875 -0.109375 -0.359375q-0.125 -0.15625 -0.375 -0.234375zm-0.921875 -0.046875q-0.40625 0.015625 -0.609375 0.21875q-0.203125 0.1875 -0.203125 0.46875q0 0.296875 0.21875 0.484375q0.21875 0.203125 0.59375 0.203125l0 -1.375zm2.015625 -4.7956314l0 0.9218674l-1.765625 0q-0.5625 0 -0.71875 0.0625q-0.171875 0.046875 -0.25 0.1875q-0.09375 0.125 -0.09375 0.3125q0 0.234375 0.125 0.421875q0.125 0.1875 0.34375 0.265625q0.21875 0.0625 0.796875 0.0625l1.5625 0l0 0.921875l-3.453125 0l0 -0.84375l0.515625 0q-0.59375 -0.453125 -0.59375 -1.140625q0 -0.31249237 0.109375 -0.5624924q0.109375 -0.25 0.28125 -0.375q0.171875 -0.125 0.390625 -0.171875q0.203125 -0.0625 0.609375 -0.0625l2.140625 0zm-3.453125 -2.5034027l0.734375 0l0 0.625l1.390625 0q0.421875 0 0.5 -0.015625q0.0625 -0.015625 0.109375 -0.078125q0.046875 -0.0625 0.046875 -0.15625q0 -0.125 -0.09375 -0.375l0.703125 -0.078125q0.140625 0.328125 0.140625 0.734375q0 0.234375 -0.078125 0.4375q-0.09375 0.203125 -0.21875 0.296875q-0.125 0.09375 -0.359375 0.125q-0.15625 0.03125 -0.640625 0.03125l-1.5 0l0 0.421875l-0.734375 0l0 -0.421875l-0.6875 0l-0.53125 -0.921875l1.21875 0l0 -0.625z" fill-rule="nonzero"/>
    <path fill="#fce5cd" d="m12.619426 171.34311l0 -52.566925l23.11811 0l0 52.566925z" fill-rule="evenodd"/>
    <path fill="#000000" d="m19.828482 150.77338l0.296875 -0.9375q0.78125 0.21875 1.15625 0.71875q0.375 0.5 0.375 1.265625q0 0.953125 -0.640625 1.5625q-0.65625 0.609375 -1.78125 0.609375q-1.1875 0 -1.84375 -0.609375q-0.65625 -0.625 -0.65625 -1.625q0 -0.875 0.515625 -1.421875q0.296875 -0.328125 0.875 -0.484375l0.234375 0.953125q-0.375 0.078125 -0.59375 0.359375q-0.21875 0.265625 -0.21875 0.640625q0 0.53125 0.390625 0.859375q0.375 0.328125 1.234375 0.328125q0.890625 0 1.28125 -0.3125q0.390625 -0.328125 0.390625 -0.859375q0 -0.375 -0.25 -0.640625q-0.25 -0.28125 -0.765625 -0.40625zm1.75 -1.7600555l-4.765625 0l0 -0.90625l4.765625 0l0 0.90625zm-3.921875 -1.8493195l-0.84375 0l0 -0.90625l0.84375 0l0 0.90625zm3.921875 0l-3.453125 0l0 -0.90625l3.453125 0l0 0.90625zm-1.09375 -3.8493195l0.140625 -0.90625q0.515625 0.171875 0.78125 0.5625q0.25 0.375 0.25 0.9375q0 0.90625 -0.59375 1.34375q-0.46875 0.328125 -1.1875 0.328125q-0.859375 0 -1.34375 -0.4375q-0.484375 -0.453125 -0.484375 -1.140625q0 -0.765625 0.515625 -1.203125q0.5 -0.453125 1.546875 -0.4375l0 2.296875q0.40625 -0.015625 0.640625 -0.21875q0.21875 -0.21875 0.21875 -0.53125q0 -0.21875 -0.109375 -0.359375q-0.125 -0.15625 -0.375 -0.234375zm-0.921875 -0.046875q-0.40625 0.015625 -0.609375 0.21875q-0.203125 0.1875 -0.203125 0.46875q0 0.296875 0.21875 0.484375q0.21875 0.203125 0.59375 0.203125l0 -1.375zm2.015625 -4.795639l0 0.921875l-1.765625 0q-0.5625 0 -0.71875 0.0625q-0.171875 0.046875 -0.25 0.1875q-0.09375 0.125 -0.09375 0.3125q0 0.234375 0.125 0.421875q0.125 0.1875 0.34375 0.265625q0.21875 0.0625 0.796875 0.0625l1.5625 0l0 0.921875l-3.453125 0l0 -0.84375l0.515625 0q-0.59375 -0.453125 -0.59375 -1.140625q0 -0.3125 0.109375 -0.5625q0.109375 -0.25 0.28125 -0.375q0.171875 -0.125 0.390625 -0.171875q0.203125 -0.0625 0.609375 -0.0625l2.140625 0zm-3.453125 -2.5034027l0.734375 0l0 0.625l1.390625 0q0.421875 0 0.5 -0.015625q0.0625 -0.015625 0.109375 -0.078125q0.046875 -0.0625 0.046875 -0.15625q0 -0.125 -0.09375 -0.375l0.703125 -0.078125q0.140625 0.328125 0.140625 0.734375q0 0.234375 -0.078125 0.4375q-0.09375 0.203125 -0.21875 0.296875q-0.125 0.09375 -0.359375 0.125q-0.15625 0.03125 -0.640625 0.03125l-1.5 0l0 0.421875l-0.734375 0l0 -0.421875l-0.6875 0l-0.53125 -0.921875l1.21875 0l0 -0.625z" fill-rule="nonzero"/>
    <path fill="#000000" d="m30.578482 160.29774l-4.765625 0l0 -3.53125l0.8125 0l0 2.5625l1.046875 0l0 -2.390625l0.8125 0l0 2.390625l1.296875 0l0 -2.65625l0.796875 0l0 3.625zm-3.453125 -4.3615417l0 -0.84375l0.46875 0q-0.546875 -0.453125 -0.546875 -1.078125q0 -0.328125 0.140625 -0.5625q0.140625 -0.25 0.40625 -0.40625q-0.265625 -0.234375 -0.40625 -0.5q-0.140625 -0.265625 -0.140625 -0.5625q0 -0.375 0.15625 -0.640625q0.15625 -0.265625 0.453125 -0.390625q0.21875 -0.09375 0.71875 -0.09375l2.203125 0l0 0.90625l-1.96875 0q-0.515625 0 -0.671875 0.09375q-0.1875 0.125 -0.1875 0.390625q0 0.203125 0.125 0.375q0.109375 0.15625 0.34375 0.234375q0.21875 0.078125 0.703125 0.078125l1.65625 0l0 0.90625l-1.890625 0q-0.5 0 -0.640625 0.046875q-0.15625 0.046875 -0.21875 0.15625q-0.078125 0.109375 -0.078125 0.28125q0 0.203125 0.109375 0.375q0.109375 0.171875 0.328125 0.25q0.21875 0.0625 0.71875 0.0625l1.671875 0l0 0.921875l-3.453125 0zm0 -5.9653473l0 -0.84375l0.515625 0q-0.265625 -0.171875 -0.421875 -0.453125q-0.171875 -0.28125 -0.171875 -0.625q0 -0.609375 0.46875 -1.015625q0.46875 -0.421875 1.3125 -0.421875q0.875 0 1.359375 0.421875q0.46875 0.421875 0.46875 1.015625q0 0.28125 -0.109375 0.515625q-0.125 0.234375 -0.390625 0.5l1.734375 0l0 0.90625l-4.765625 0zm1.671875 -0.90625q0.578125 0 0.859375 -0.21875q0.28125 -0.234375 0.28125 -0.5625q0 -0.328125 -0.25 -0.53125q-0.265625 -0.21875 -0.84375 -0.21875q-0.546875 0 -0.8125 0.21875q-0.265625 0.21875 -0.265625 0.546875q0 0.328125 0.265625 0.546875q0.25 0.21875 0.765625 0.21875zm1.78125 -3.1909027l-4.765625 0l0 -0.90625l4.765625 0l0 0.90625zm-1.78125 -1.6305695q-0.453125 0 -0.875 -0.21875q-0.421875 -0.234375 -0.640625 -0.640625q-0.234375 -0.40625 -0.234375 -0.921875q0 -0.78125 0.515625 -1.28125q0.5 -0.5 1.28125 -0.5q0.78125 0 1.296875 0.515625q0.515625 0.5 0.515625 1.265625q0 0.46875 -0.203125 0.90625q-0.21875 0.421875 -0.640625 0.65625q-0.421875 0.21875 -1.015625 0.21875zm0.0625 -0.9375q0.5 0 0.78125 -0.234375q0.265625 -0.25 0.265625 -0.609375q0 -0.359375 -0.265625 -0.59375q-0.28125 -0.25 -0.796875 -0.25q-0.5 0 -0.765625 0.25q-0.28125 0.234375 -0.28125 0.59375q0 0.359375 0.28125 0.609375q0.265625 0.234375 0.78125 0.234375zm-1.734375 -2.9096527l0 -0.96875l2.453125 -0.828125l-2.453125 -0.8125l0 -0.9375l3.328125 1.21875l0.59375 0.21875q0.3125 0.125 0.46875 0.234375q0.15625 0.109375 0.25 0.25q0.109375 0.140625 0.15625 0.34375q0.0625 0.203125 0.0625 0.46875q0 0.265625 -0.0625 0.515625l-0.71875 0.078125q0.046875 -0.21875 0.046875 -0.390625q0 -0.3125 -0.1875 -0.46875q-0.1875 -0.15625 -0.46875 -0.234375l-3.46875 1.3125zm2.359375 -6.139389l0.140625 -0.90625q0.515625 0.171875 0.78125 0.5625q0.25 0.375 0.25 0.9375q0 0.90625 -0.59375 1.34375q-0.46875 0.328125 -1.1875 0.328125q-0.859375 0 -1.34375 -0.4375q-0.484375 -0.453125 -0.484375 -1.140625q0 -0.765625 0.515625 -1.203125q0.5 -0.453125 1.546875 -0.4375l0 2.296875q0.40625 -0.015625 0.640625 -0.21875q0.21875 -0.21875 0.21875 -0.53125q0 -0.21875 -0.109375 -0.359375q-0.125 -0.15625 -0.375 -0.234375zm-0.921875 -0.046875q-0.40625 0.015625 -0.609375 0.21875q-0.203125 0.1875 -0.203125 0.46875q0 0.296875 0.21875 0.484375q0.21875 0.203125 0.59375 0.203125l0 -1.375zm0.921875 -3.655014l0.140625 -0.90625q0.515625 0.171875 0.78125 0.5625q0.25 0.375 0.25 0.9375q0 0.90625 -0.59375 1.34375q-0.46875 0.328125 -1.1875 0.328125q-0.859375 0 -1.34375 -0.4375q-0.484375 -0.453125 -0.484375 -1.140625q0 -0.765625 0.515625 -1.203125q0.5 -0.453125 1.546875 -0.4375l0 2.296875q0.40625 -0.015625 0.640625 -0.21875q0.21875 -0.21875 0.21875 -0.53125q0 -0.21875 -0.109375 -0.359375q-0.125 -0.15625 -0.375 -0.234375zm-0.921875 -0.046875q-0.40625 0.015625 -0.609375 0.21875q-0.203125 0.1875 -0.203125 0.46875q0 0.296875 0.21875 0.484375q0.21875 0.203125 0.59375 0.203125l0 -1.375z" fill-rule="nonzero"/>
    <path fill="#faf7f3" d="m12.619426 231.422l0 -56.314957l23.11811 0l0 56.314957z" fill-rule="evenodd"/>
    <path fill="#000000" d="m24.531607 220.41667l-0.09375 -0.9375q0.46875 -0.09375 0.6875 -0.34375q0.21875 -0.265625 0.21875 -0.703125q0 -0.46875 -0.1875 -0.703125q-0.203125 -0.234375 -0.46875 -0.234375q-0.15625 0 -0.28125 0.109375q-0.125 0.09375 -0.203125 0.34375q-0.0625 0.171875 -0.21875 0.765625q-0.1875 0.78125 -0.46875 1.09375q-0.390625 0.4375 -0.953125 0.4375q-0.359375 0 -0.671875 -0.203125q-0.328125 -0.21875 -0.484375 -0.609375q-0.171875 -0.390625 -0.171875 -0.9375q0 -0.890625 0.390625 -1.34375q0.390625 -0.453125 1.046875 -0.484375l0.046875 0.96875q-0.375 0.0625 -0.53125 0.265625q-0.15625 0.203125 -0.15625 0.609375q0 0.421875 0.171875 0.65625q0.109375 0.15625 0.296875 0.15625q0.171875 0 0.28125 -0.140625q0.15625 -0.1875 0.328125 -0.890625q0.15625 -0.703125 0.34375 -1.03125q0.171875 -0.34375 0.484375 -0.53125q0.296875 -0.1875 0.75 -0.1875q0.40625 0 0.765625 0.234375q0.359375 0.21875 0.53125 0.640625q0.171875 0.40625 0.171875 1.03125q0 0.90625 -0.40625 1.390625q-0.421875 0.484375 -1.21875 0.578125zm1.546875 -6.9552917l-0.515625 0q0.28125 0.1875 0.4375 0.5q0.15625 0.296875 0.15625 0.640625q0 0.359375 -0.15625 0.640625q-0.15625 0.265625 -0.421875 0.390625q-0.28125 0.125 -0.765625 0.125l-2.1875 0l0 -0.921875l1.59375 0q0.71875 0 0.890625 -0.046875q0.15625 -0.046875 0.25 -0.171875q0.09375 -0.140625 0.09375 -0.34375q0 -0.234375 -0.125 -0.421875q-0.125 -0.1875 -0.3125 -0.25q-0.1875 -0.078125 -0.9375 -0.078125l-1.453125 0l0 -0.90625l3.453125 0l0 0.84375zm-3.453125 -1.7690277l0 -0.84375l0.515625 0q-0.265625 -0.171875 -0.421875 -0.453125q-0.171875 -0.28125 -0.171875 -0.625q0 -0.609375 0.46875 -1.015625q0.46875 -0.421875 1.3125 -0.421875q0.875 0 1.359375 0.421875q0.46875 0.421875 0.46875 1.015625q0 0.28125 -0.109375 0.515625q-0.125 0.234375 -0.390625 0.5l1.734375 0l0 0.90625l-4.765625 0zm1.671875 -0.90625q0.578125 0 0.859375 -0.21875q0.28125 -0.234375 0.28125 -0.5625q0 -0.328125 -0.25 -0.53125q-0.265625 -0.21875 -0.84375 -0.21875q-0.546875 0 -0.8125 0.21875q-0.265625 0.21875 -0.265625 0.546875q0 0.328125 0.265625 0.546875q0.25 0.21875 0.765625 0.21875zm0.6875 -5.1909027l0.140625 -0.90625q0.515625 0.171875 0.78125 0.5625q0.25 0.375 0.25 0.9375q0 0.90625 -0.59375 1.34375q-0.46875 0.328125 -1.1875 0.328125q-0.859375 0 -1.34375 -0.4375q-0.484375 -0.453125 -0.484375 -1.140625q0 -0.765625 0.515625 -1.203125q0.5 -0.453125 1.546875 -0.4375l0 2.296875q0.40625 -0.015625 0.640625 -0.21875q0.21875 -0.21875 0.21875 -0.53125q0 -0.21875 -0.109375 -0.359375q-0.125 -0.15625 -0.375 -0.234375zm-0.921875 -0.046875q-0.40625 0.015625 -0.609375 0.21875q-0.203125 0.1875 -0.203125 0.46875q0 0.296875 0.21875 0.484375q0.21875 0.203125 0.59375 0.203125l0 -1.375zm2.015625 -2.530014l0 0.921875l-3.453125 0l0 -0.84375l0.5 0q-0.359375 -0.21875 -0.46875 -0.390625q-0.109375 -0.1875 -0.109375 -0.40625q0 -0.3125 0.171875 -0.59375l0.796875 0.28125q-0.140625 0.234375 -0.140625 0.421875q0 0.203125 0.109375 0.34375q0.09375 0.125 0.375 0.203125q0.265625 0.0625 1.15625 0.0625l1.0625 0zm0 -2.6528473l-3.453125 1.390625l0 -0.96875l1.765625 -0.640625l0.578125 -0.1875q-0.21875 -0.078125 -0.28125 -0.09375q-0.15625 -0.046875 -0.296875 -0.109375l-1.765625 -0.65625l0 -0.9375l3.453125 1.375l0 0.828125zm-3.921875 -2.764389l-0.84375 0l0 -0.90625l0.84375 0l0 0.90625zm3.921875 0l-3.453125 0l0 -0.90625l3.453125 0l0 0.90625zm-0.984375 -1.5211945l-0.140625 -0.921875q0.265625 -0.046875 0.40625 -0.21875q0.140625 -0.1875 0.140625 -0.515625q0 -0.359375 -0.140625 -0.53125q-0.078125 -0.125 -0.234375 -0.125q-0.109375 0 -0.171875 0.0625q-0.0625 0.078125 -0.125 0.3125q-0.234375 1.109375 -0.4375 1.40625q-0.28125 0.40625 -0.78125 0.40625q-0.453125 0 -0.75 -0.34375q-0.3125 -0.359375 -0.3125 -1.109375q0 -0.703125 0.234375 -1.046875q0.234375 -0.359375 0.6875 -0.484375l0.15625 0.859375q-0.203125 0.0625 -0.3125 0.21875q-0.109375 0.15625 -0.109375 0.4375q0 0.359375 0.109375 0.515625q0.0625 0.109375 0.171875 0.109375q0.109375 0 0.171875 -0.09375q0.09375 -0.125 0.265625 -0.859375q0.15625 -0.734375 0.390625 -1.015625q0.25 -0.28125 0.6875 -0.28125q0.46875 0 0.8125 0.390625q0.34375 0.390625 0.34375 1.171875q0 0.703125 -0.28125 1.125q-0.296875 0.40625 -0.78125 0.53125zm-0.796875 -3.811264q-0.453125 0 -0.875 -0.21875q-0.421875 -0.234375 -0.640625 -0.640625q-0.234375 -0.40625 -0.234375 -0.921875q0 -0.78125 0.515625 -1.28125q0.5 -0.5 1.28125 -0.5q0.78125 0 1.296875 0.515625q0.515625 0.5 0.515625 1.265625q0 0.46875 -0.203125 0.90625q-0.21875 0.421875 -0.640625 0.65625q-0.421875 0.21875 -1.015625 0.21875zm0.0625 -0.9375q0.5 0 0.78125 -0.234375q0.265625 -0.25 0.265625 -0.609375q0 -0.359375 -0.265625 -0.59375q-0.28125 -0.25 -0.796875 -0.25q-0.5 0 -0.765625 0.25q-0.28125 0.234375 -0.28125 0.59375q0 0.359375 0.28125 0.609375q0.265625 0.234375 0.78125 0.234375zm1.71875 -4.2221527l0 0.921875l-3.453125 0l0 -0.84375l0.5 0q-0.359375 -0.21875 -0.46875 -0.390625q-0.109375 -0.1875 -0.109375 -0.40625q0 -0.3125 0.171875 -0.59375l0.796875 0.28125q-0.140625 0.234375 -0.140625 0.421875q0 0.203125 0.109375 0.34375q0.09375 0.125 0.375 0.203125q0.265625 0.0625 1.15625 0.0625l1.0625 0z" fill-rule="nonzero"/>
    <path fill="#faf7f3" d="m12.619426 291.5009l0 -56.314957l23.11811 0l0 56.314957z" fill-rule="evenodd"/>
    <path fill="#000000" d="m26.078482 280.2423l-4.765625 0l0 -3.265625l0.8125 0l0 2.296875l1.125 0l0 -1.984375l0.796875 0l0 1.984375l2.03125 0l0 0.96875zm0 -4.940918l0 0.921875l-3.453125 0l0 -0.84375l0.5 0q-0.359375 -0.21875 -0.46875 -0.390625q-0.109375 -0.1875 -0.109375 -0.40625q0 -0.3125 0.171875 -0.59375l0.796875 0.28125q-0.140625 0.234375 -0.140625 0.421875q0 0.203125 0.109375 0.34375q0.09375 0.125 0.375 0.203125q0.265625 0.0625 1.15625 0.0625l1.0625 0zm-1.78125 -1.496582q-0.453125 0 -0.875 -0.21875q-0.421875 -0.234375 -0.640625 -0.640625q-0.234375 -0.40625 -0.234375 -0.921875q0 -0.78125 0.515625 -1.28125q0.5 -0.5 1.28125 -0.5q0.78125 0 1.296875 0.515625q0.515625 0.5 0.515625 1.265625q0 0.46875 -0.203125 0.90625q-0.21875 0.421875 -0.640625 0.65625q-0.421875 0.21875 -1.015625 0.21875zm0.0625 -0.9375q0.5 0 0.78125 -0.234375q0.265625 -0.25 0.265625 -0.609375q0 -0.359375 -0.265625 -0.59375q-0.28125 -0.25 -0.796875 -0.25q-0.5 0 -0.765625 0.25q-0.28125 0.234375 -0.28125 0.59375q0 0.359375 0.28125 0.609375q0.265625 0.234375 0.78125 0.234375zm1.71875 -6.487793l0 0.921875l-1.765625 0q-0.5625 0 -0.71875 0.0625q-0.171875 0.046875 -0.25 0.1875q-0.09375 0.125 -0.09375 0.3125q0 0.234375 0.125 0.421875q0.125 0.1875 0.34375 0.265625q0.21875 0.0625 0.796875 0.0625l1.5625 0l0 0.921875l-3.453125 0l0 -0.84375l0.515625 0q-0.59375 -0.453125 -0.59375 -1.140625q0 -0.3125 0.109375 -0.5625q0.109375 -0.25 0.28125 -0.375q0.171875 -0.125 0.390625 -0.171875q0.203125 -0.0625 0.609375 -0.0625l2.140625 0zm-3.453125 -2.5033875l0.734375 0l0 0.625l1.390625 0q0.421875 0 0.5 -0.015625q0.0625 -0.015625 0.109375 -0.078125q0.046875 -0.0625 0.046875 -0.15625q0 -0.125 -0.09375 -0.375l0.703125 -0.078125q0.140625 0.328125 0.140625 0.734375q0 0.234375 -0.078125 0.4375q-0.09375 0.203125 -0.21875 0.296875q-0.125 0.09375 -0.359375 0.125q-0.15625 0.03125 -0.640625 0.03125l-1.5 0l0 0.421875l-0.734375 0l0 -0.421875l-0.6875 0l-0.53125 -0.921875l1.21875 0l0 -0.625zm-1.3125 -2.487793l0 -1.75q0 -0.59375 0.09375 -0.90625q0.125 -0.421875 0.4375 -0.71875q0.3125 -0.296875 0.78125 -0.453125q0.453125 -0.15625 1.109375 -0.15625q0.59375 0 1.015625 0.140625q0.53125 0.171875 0.84375 0.515625q0.25 0.25 0.390625 0.671875q0.09375 0.3125 0.09375 0.84375l0 1.8125l-4.765625 0zm0.8125 -0.953125l3.15625 0l0 -0.71875q0 -0.40625 -0.046875 -0.59375q-0.0625 -0.234375 -0.203125 -0.375q-0.140625 -0.15625 -0.453125 -0.25q-0.328125 -0.109375 -0.875 -0.109375q-0.5625 0 -0.84375 0.109375q-0.296875 0.09375 -0.46875 0.265625q-0.171875 0.171875 -0.21875 0.4375q-0.046875 0.203125 -0.046875 0.796875l0 0.4375zm2.859375 -5.8537903l0.140625 -0.90625q0.515625 0.171875 0.78125 0.5625q0.25 0.375 0.25 0.9375q0 0.90625 -0.59375 1.34375q-0.46875 0.328125 -1.1875 0.328125q-0.859375 0 -1.34375 -0.4375q-0.484375 -0.453125 -0.484375 -1.140625q0 -0.765625 0.515625 -1.203125q0.5 -0.453125 1.546875 -0.4375l0 2.296875q0.40625 -0.015625 0.640625 -0.21875q0.21875 -0.21875 0.21875 -0.53125q0 -0.21875 -0.109375 -0.359375q-0.125 -0.15625 -0.375 -0.234375zm-0.921875 -0.046875q-0.40625 0.015625 -0.609375 0.21875q-0.203125 0.1875 -0.203125 0.46875q0 0.296875 0.21875 0.484375q0.21875 0.203125 0.59375 0.203125l0 -1.375zm1.03125 -1.326889l-0.140625 -0.921875q0.265625 -0.046875 0.40625 -0.21875q0.140625 -0.1875 0.140625 -0.515625q0 -0.359375 -0.140625 -0.53125q-0.078125 -0.125 -0.234375 -0.125q-0.109375 0 -0.171875 0.0625q-0.0625 0.078125 -0.125 0.3125q-0.234375 1.109375 -0.4375 1.40625q-0.28125 0.40625 -0.78125 0.40625q-0.453125 0 -0.75 -0.34375q-0.3125 -0.359375 -0.3125 -1.109375q0 -0.703125 0.234375 -1.046875q0.234375 -0.359375 0.6875 -0.484375l0.15625 0.859375q-0.203125 0.0625 -0.3125 0.21875q-0.109375 0.15625 -0.109375 0.4375q0 0.359375 0.109375 0.515625q0.0625 0.109375 0.171875 0.109375q0.109375 0 0.171875 -0.09375q0.09375 -0.125 0.265625 -0.859375q0.15625 -0.734375 0.390625 -1.015625q0.25 -0.28125 0.6875 -0.28125q0.46875 0 0.8125 0.390625q0.34375 0.390625 0.34375 1.171875q0 0.703125 -0.28125 1.125q-0.296875 0.40625 -0.78125 0.53125zm0.984375 -3.983139l-4.765625 0l0 -0.921875l2.53125 0l-1.21875 -1.0625l0 -1.125l1.265625 1.171875l2.1875 -1.265625l0 0.984375l-1.546875 0.875l0.4375 0.421875l1.109375 0l0 0.921875z" fill-rule="nonzero"/>
    <path fill="#faf7f3" d="m12.620058 354.18533l0 -58.677155l23.118109 0l0 58.677155z" fill-rule="evenodd"/>
    <path fill="#000000" d="m26.079113 349.70096l-4.765625 0l0 -1.546875q0 -0.875 0.078125 -1.140625q0.109375 -0.40625 0.46875 -0.6875q0.34375 -0.28125 0.921875 -0.28125q0.4375 0 0.734375 0.171875q0.296875 0.15625 0.46875 0.40625q0.171875 0.234375 0.234375 0.484375q0.0625 0.34375 0.0625 1.0l0 0.625l1.796875 0l0 0.96875zm-3.953125 -0.96875l1.34375 0l0 -0.515625q0 -0.578125 -0.0625 -0.765625q-0.078125 -0.1875 -0.234375 -0.296875q-0.171875 -0.109375 -0.375 -0.109375q-0.265625 0 -0.4375 0.15625q-0.171875 0.140625 -0.203125 0.375q-0.03125 0.171875 -0.03125 0.703125l0 0.453125zm3.953125 -4.3459167l0 0.921875l-3.453125 0l0 -0.84375l0.5 0q-0.359375 -0.21875 -0.46875 -0.390625q-0.109375 -0.1875 -0.109375 -0.40625q0 -0.3125 0.171875 -0.59375l0.796875 0.28125q-0.140625 0.234375 -0.140625 0.421875q0 0.203125 0.109375 0.34375q0.09375 0.125 0.375 0.203125q0.265625 0.0625 1.15625 0.0625l1.0625 0zm-1.78125 -1.4966125q-0.453125 0 -0.875 -0.21875q-0.421875 -0.234375 -0.640625 -0.640625q-0.234375 -0.40625 -0.234375 -0.921875q0 -0.78125 0.515625 -1.28125q0.5 -0.5 1.28125 -0.5q0.78125 0 1.296875 0.515625q0.515625 0.5 0.515625 1.265625q0 0.46875 -0.203125 0.90625q-0.21875 0.421875 -0.640625 0.65625q-0.421875 0.21875 -1.015625 0.21875zm0.0625 -0.9375q0.5 0 0.78125 -0.234375q0.265625 -0.25 0.265625 -0.609375q0 -0.359375 -0.265625 -0.59375q-0.28125 -0.25 -0.796875 -0.25q-0.5 0 -0.765625 0.25q-0.28125 0.234375 -0.28125 0.59375q0 0.359375 0.28125 0.609375q0.265625 0.234375 0.78125 0.234375zm1.71875 -4.2846375l-3.453125 1.390625l0 -0.96875l1.765625 -0.640625l0.578125 -0.1875q-0.21875 -0.078125 -0.28125 -0.09375q-0.15625 -0.046875 -0.296875 -0.109375l-1.765625 -0.65625l0 -0.9375l3.453125 1.375l0 0.828125zm-3.921875 -2.7644043l-0.84375 0l0 -0.90625l0.84375 0l0 0.90625zm3.921875 0l-3.453125 0l0 -0.90625l3.453125 0l0 0.90625zm0 -5.005554l0 0.84375l-0.5 0q0.28125 0.21875 0.4375 0.5q0.140625 0.28125 0.140625 0.578125q0 0.59375 -0.46875 1.03125q-0.484375 0.421875 -1.34375 0.421875q-0.875 0 -1.328125 -0.40625q-0.46875 -0.421875 -0.46875 -1.0625q0 -0.578125 0.484375 -1.0l-1.71875 0l0 -0.90625l4.765625 0zm-1.796875 2.4375q0.546875 0 0.796875 -0.15625q0.359375 -0.21875 0.359375 -0.609375q0 -0.328125 -0.265625 -0.546875q-0.28125 -0.21875 -0.8125 -0.21875q-0.59375 0 -0.84375 0.21875q-0.265625 0.21875 -0.265625 0.546875q0 0.328125 0.265625 0.546875q0.25 0.21875 0.765625 0.21875zm0.703125 -5.347168l0.140625 -0.90625q0.515625 0.171875 0.78125 0.5625q0.25 0.375 0.25 0.9375q0 0.90625 -0.59375 1.34375q-0.46875 0.328125 -1.1875 0.328125q-0.859375 0 -1.34375 -0.4375q-0.484375 -0.453125 -0.484375 -1.140625q0 -0.765625 0.515625 -1.203125q0.5 -0.453125 1.546875 -0.4375l0 2.296875q0.40625 -0.015625 0.640625 -0.21875q0.21875 -0.21875 0.21875 -0.53125q0 -0.21875 -0.109375 -0.359375q-0.125 -0.15625 -0.375 -0.234375zm-0.921875 -0.046875q-0.40625 0.015625 -0.609375 0.21875q-0.203125 0.1875 -0.203125 0.46875q0 0.296875 0.21875 0.484375q0.21875 0.203125 0.59375 0.203125l0 -1.375zm2.015625 -2.5299988l0 0.921875l-3.453125 0l0 -0.84375l0.5 0q-0.359375 -0.21875 -0.46875 -0.390625q-0.109375 -0.1875 -0.109375 -0.40625q0 -0.3125 0.171875 -0.59375l0.796875 0.28125q-0.140625 0.234375 -0.140625 0.421875q0 0.203125 0.109375 0.34375q0.09375 0.125 0.375 0.203125q0.265625 0.0625 1.15625 0.0625l1.0625 0z" fill-rule="nonzero"/>
    <path fill="#faf7f3" d="m12.619426 411.65866l0 -56.314972l23.11811 0l0 56.314972z" fill-rule="evenodd"/>
    <path fill="#000000" d="m21.312857 395.7784l0 -1.75q0 -0.59375 0.09375 -0.90625q0.125 -0.421875 0.4375 -0.71875q0.3125 -0.296875 0.78125 -0.453125q0.453125 -0.15625 1.109375 -0.15625q0.59375 0 1.015625 0.140625q0.53125 0.171875 0.84375 0.515625q0.25 0.25 0.390625 0.671875q0.09375 0.3125 0.09375 0.84375l0 1.8125l-4.765625 0zm0.8125 -0.953125l3.15625 0l0 -0.71875q0 -0.40625 -0.046875 -0.59375q-0.0625 -0.234375 -0.203125 -0.375q-0.140625 -0.15625 -0.453125 -0.25q-0.328125 -0.109375 -0.875 -0.109375q-0.5625 0 -0.84375 0.109375q-0.296875 0.09375 -0.46875 0.265625q-0.171875 0.171875 -0.21875 0.4375q-0.046875 0.203125 -0.046875 0.796875l0 0.4375zm0.03125 -3.8538208l-0.84375 0l0 -0.90625l0.84375 0l0 0.90625zm3.921875 0l-3.453125 0l0 -0.90625l3.453125 0l0 0.90625zm0 -2.7243042l0 0.921875l-3.453125 0l0 -0.84375l0.5 0q-0.359375 -0.21875 -0.46875 -0.390625q-0.109375 -0.1875 -0.109375 -0.40625q0 -0.3125 0.171875 -0.59375l0.796875 0.28125q-0.140625 0.234375 -0.140625 0.421875q0 0.203125 0.109375 0.34375q0.09375 0.125 0.375 0.203125q0.265625 0.0625 1.15625 0.0625l1.0625 0zm-1.09375 -3.7153625l0.140625 -0.90625q0.515625 0.171875 0.78125 0.5625q0.25 0.375 0.25 0.9375q0 0.90625 -0.59375 1.34375q-0.46875 0.328125 -1.1875 0.328125q-0.859375 0 -1.34375 -0.4375q-0.484375 -0.453125 -0.484375 -1.140625q0 -0.765625 0.515625 -1.203125q0.5 -0.453125 1.546875 -0.4375l0 2.296875q0.40625 -0.015625 0.640625 -0.21875q0.21875 -0.21875 0.21875 -0.53125q0 -0.21875 -0.109375 -0.359375q-0.125 -0.15625 -0.375 -0.234375zm-0.921875 -0.046875q-0.40625 0.015625 -0.609375 0.21875q-0.203125 0.1875 -0.203125 0.46875q0 0.296875 0.21875 0.484375q0.21875 0.203125 0.59375 0.203125l0 -1.375zm-0.421875 -4.654999l0.171875 0.890625q-0.265625 0.046875 -0.40625 0.21875q-0.140625 0.15625 -0.140625 0.40625q0 0.34375 0.234375 0.546875q0.234375 0.203125 0.796875 0.203125q0.609375 0 0.859375 -0.203125q0.25 -0.203125 0.25 -0.546875q0 -0.265625 -0.140625 -0.421875q-0.15625 -0.171875 -0.515625 -0.25l0.15625 -0.890625q0.625 0.140625 0.9375 0.546875q0.3125 0.390625 0.3125 1.046875q0 0.765625 -0.46875 1.21875q-0.484375 0.4375 -1.328125 0.4375q-0.859375 0 -1.328125 -0.453125q-0.484375 -0.453125 -0.484375 -1.21875q0 -0.625 0.28125 -1.0q0.265625 -0.375 0.8125 -0.53125zm-1.015625 -2.2800293l0.734375 0l0 0.625l1.390625 0q0.421875 0 0.5 -0.015625q0.0625 -0.015625 0.109375 -0.078125q0.046875 -0.0625 0.046875 -0.15625q0 -0.125 -0.09375 -0.375l0.703125 -0.078125q0.140625 0.328125 0.140625 0.734375q0 0.234375 -0.078125 0.4375q-0.09375 0.203125 -0.21875 0.296875q-0.125 0.09375 -0.359375 0.125q-0.15625 0.03125 -0.640625 0.03125l-1.5 0l0 0.421875l-0.734375 0l0 -0.421875l-0.6875 0l-0.53125 -0.921875l1.21875 0l0 -0.625zm1.671875 -0.41970825q-0.453125 0 -0.875 -0.21875q-0.421875 -0.234375 -0.640625 -0.640625q-0.234375 -0.40625 -0.234375 -0.921875q0 -0.78125 0.515625 -1.28125q0.5 -0.5 1.28125 -0.5q0.78125 0 1.296875 0.515625q0.515625 0.5 0.515625 1.265625q0 0.46875 -0.203125 0.90625q-0.21875 0.421875 -0.640625 0.65625q-0.421875 0.21875 -1.015625 0.21875zm0.0625 -0.9375q0.5 0 0.78125 -0.234375q0.265625 -0.25 0.265625 -0.609375q0 -0.359375 -0.265625 -0.59375q-0.28125 -0.25 -0.796875 -0.25q-0.5 0 -0.765625 0.25q-0.28125 0.234375 -0.28125 0.59375q0 0.359375 0.28125 0.609375q0.265625 0.234375 0.78125 0.234375zm1.71875 -4.2221375l0 0.921875l-3.453125 0l0 -0.84375l0.5 0q-0.359375 -0.21875 -0.46875 -0.390625q-0.109375 -0.1875 -0.109375 -0.40625q0 -0.3125 0.171875 -0.59375l0.796875 0.28125q-0.140625 0.234375 -0.140625 0.421875q0 0.203125 0.109375 0.34375q0.09375 0.125 0.375 0.203125q0.265625 0.0625 1.15625 0.0625l1.0625 0z" fill-rule="nonzero"/>
    <path fill="#faf7f3" d="m12.619426 471.73752l0 -56.31494l23.11811 0l0 56.31494z" fill-rule="evenodd"/>
    <path fill="#000000" d="m26.078482 455.67203l-4.765625 0l0 -3.265625l0.8125 0l0 2.296875l1.125 0l0 -1.984375l0.796875 0l0 1.984375l2.03125 0l0 0.96875zm-3.921875 -4.065918l-0.84375 0l0 -0.90625l0.84375 0l0 0.90625zm3.921875 0l-3.453125 0l0 -0.90625l3.453125 0l0 0.90625zm0 -4.989929l0 0.921875l-1.765625 0q-0.5625 0 -0.71875 0.0625q-0.171875 0.046875 -0.25 0.1875q-0.09375 0.125 -0.09375 0.3125q0 0.234375 0.125 0.421875q0.125 0.1875 0.34375 0.265625q0.21875 0.0625 0.796875 0.0625l1.5625 0l0 0.921875l-3.453125 0l0 -0.84375l0.515625 0q-0.59375 -0.453125 -0.59375 -1.140625q0 -0.3125 0.109375 -0.5625q0.109375 -0.25 0.28125 -0.375q0.171875 -0.125 0.390625 -0.171875q0.203125 -0.0625 0.609375 -0.0625l2.140625 0zm-2.40625 -1.597168l-0.140625 0.828125q-0.5 -0.140625 -0.734375 -0.484375q-0.25 -0.34375 -0.25 -1.015625q0 -0.609375 0.15625 -0.90625q0.140625 -0.296875 0.359375 -0.421875q0.21875 -0.125 0.8125 -0.125l1.0625 0.015625q0.46875 0 0.6875 -0.046875q0.203125 -0.046875 0.453125 -0.171875l0 0.90625q-0.09375 0.046875 -0.265625 0.09375q-0.078125 0.015625 -0.109375 0.03125q0.21875 0.234375 0.34375 0.5q0.109375 0.265625 0.109375 0.5625q0 0.546875 -0.28125 0.859375q-0.296875 0.296875 -0.734375 0.296875q-0.296875 0 -0.515625 -0.140625q-0.234375 -0.140625 -0.359375 -0.390625q-0.125 -0.25 -0.21875 -0.734375q-0.109375 -0.640625 -0.21875 -0.875l-0.09375 0q-0.265625 0 -0.375 0.125q-0.109375 0.125 -0.109375 0.484375q0 0.25 0.09375 0.390625q0.09375 0.125 0.328125 0.21875zm0.75 -1.21875q0.0625 0.171875 0.140625 0.546875q0.078125 0.375 0.15625 0.5q0.125 0.171875 0.328125 0.171875q0.1875 0 0.328125 -0.140625q0.140625 -0.140625 0.140625 -0.359375q0 -0.25 -0.171875 -0.46875q-0.109375 -0.171875 -0.296875 -0.21875q-0.109375 -0.03125 -0.4375 -0.03125l-0.1875 0zm1.65625 -4.951874l0 0.921875l-1.765625 0q-0.5625 0 -0.71875 0.0625q-0.171875 0.046875 -0.25 0.1875q-0.09375 0.125 -0.09375 0.3125q0 0.234375 0.125 0.421875q0.125 0.1875 0.34375 0.265625q0.21875 0.0625 0.796875 0.0625l1.5625 0l0 0.921875l-3.453125 0l0 -0.84375l0.515625 0q-0.59375 -0.453125 -0.59375 -1.140625q0 -0.3125 0.109375 -0.5625q0.109375 -0.25 0.28125 -0.375q0.171875 -0.125 0.390625 -0.171875q0.203125 -0.0625 0.609375 -0.0625l2.140625 0zm-2.4375 -3.925293l0.171875 0.890625q-0.265625 0.046875 -0.40625 0.21875q-0.140625 0.15625 -0.140625 0.40625q0 0.34375 0.234375 0.546875q0.234375 0.203125 0.796875 0.203125q0.609375 0 0.859375 -0.203125q0.25 -0.203125 0.25 -0.546875q0 -0.265625 -0.140625 -0.421875q-0.15625 -0.171875 -0.515625 -0.25l0.15625 -0.890625q0.625 0.140625 0.9375 0.546875q0.3125 0.390625 0.3125 1.046875q0 0.765625 -0.46875 1.21875q-0.484375 0.4375 -1.328125 0.4375q-0.859375 0 -1.328125 -0.453125q-0.484375 -0.453125 -0.484375 -1.21875q0 -0.625 0.28125 -1.0q0.265625 -0.375 0.8125 -0.53125zm1.34375 -2.7018738l0.140625 -0.90625q0.515625 0.171875 0.78125 0.5625q0.25 0.375 0.25 0.9375q0 0.90625 -0.59375 1.34375q-0.46875 0.328125 -1.1875 0.328125q-0.859375 0 -1.34375 -0.4375q-0.484375 -0.453125 -0.484375 -1.140625q0 -0.765625 0.515625 -1.203125q0.5 -0.453125 1.546875 -0.4375l0 2.296875q0.40625 -0.015625 0.640625 -0.21875q0.21875 -0.21875 0.21875 -0.53125q0 -0.21875 -0.109375 -0.359375q-0.125 -0.15625 -0.375 -0.234375zm-0.921875 -0.046875q-0.40625 0.015625 -0.609375 0.21875q-0.203125 0.1875 -0.203125 0.46875q0 0.296875 0.21875 0.484375q0.21875 0.203125 0.59375 0.203125l0 -1.375z" fill-rule="nonzero"/>
    <path fill="#ffffff" d="m50.51986 88.72962l0 0c0 -9.749786 7.903759 -17.65355 17.653542 -17.65355l56.472443 0l0 0c4.682007 0 9.172256 1.8599243 12.482941 5.1706085c3.3106842 3.3106766 5.1706085 7.800926 5.1706085 12.482941l0 0l0 0c0 9.749779 -7.903763 17.653542 -17.65355 17.653542l-56.472443 0c-9.749783 0 -17.653542 -7.903763 -17.653542 -17.653542z" fill-rule="evenodd"/>
    <path stroke="#6cb33f" stroke-width="3.0" stroke-linejoin="round" stroke-linecap="butt" d="m50.51986 88.72962l0 0c0 -9.749786 7.903759 -17.65355 17.653542 -17.65355l56.472443 0l0 0c4.682007 0 9.172256 1.8599243 12.482941 5.1706085c3.3106842 3.3106766 5.1706085 7.800926 5.1706085 12.482941l0 0l0 0c0 9.749779 -7.903763 17.653542 -17.65355 17.653542l-56.472443 0c-9.749783 0 -17.653542 -7.903763 -17.653542 -17.653542z" fill-rule="evenodd"/>
    <path fill="#000000" d="m88.32173 89.565865l0.71875 -0.0625q0.046875 0.4375 0.234375 0.71875q0.1875 0.265625 0.578125 0.4375q0.390625 0.171875 0.875 0.171875q0.4375 0 0.765625 -0.125q0.328125 -0.140625 0.484375 -0.359375q0.171875 -0.234375 0.171875 -0.5q0 -0.265625 -0.15625 -0.46875q-0.15625 -0.203125 -0.515625 -0.328125q-0.234375 -0.09375 -1.03125 -0.28125q-0.78125 -0.1875 -1.09375 -0.359375q-0.40625 -0.21875 -0.609375 -0.53125q-0.203125 -0.328125 -0.203125 -0.71875q0 -0.4375 0.25 -0.8125q0.25 -0.375 0.71875 -0.5625q0.46875 -0.203125 1.046875 -0.203125q0.640625 0 1.125 0.203125q0.484375 0.203125 0.75 0.609375q0.265625 0.390625 0.28125 0.90625l-0.734375 0.046875q-0.046875 -0.546875 -0.390625 -0.8125q-0.34375 -0.28125 -1.0 -0.28125q-0.6875 0 -1.0 0.25q-0.3125 0.25 -0.3125 0.609375q0 0.3125 0.21875 0.5q0.21875 0.203125 1.140625 0.421875q0.921875 0.203125 1.265625 0.359375q0.5 0.234375 0.734375 0.59375q0.25 0.34375 0.25 0.796875q0 0.46875 -0.265625 0.875q-0.265625 0.390625 -0.75 0.625q-0.484375 0.21875 -1.109375 0.21875q-0.765625 0 -1.296875 -0.21875q-0.53125 -0.234375 -0.828125 -0.6875q-0.296875 -0.453125 -0.3125 -1.03125zm7.0390625 1.21875l0.109375 0.609375q-0.296875 0.078125 -0.53125 0.078125q-0.390625 0 -0.609375 -0.125q-0.203125 -0.125 -0.296875 -0.3125q-0.078125 -0.203125 -0.078125 -0.84375l0 -2.390625l-0.515625 0l0 -0.546875l0.515625 0l0 -1.015625l0.703125 -0.421875l0 1.4375l0.703125 0l0 0.546875l-0.703125 0l0 2.4375q0 0.296875 0.03125 0.390625q0.046875 0.078125 0.125 0.125q0.078125 0.046875 0.234375 0.046875q0.125 0 0.3125 -0.015625zm3.3945312 0.109375q-0.390625 0.328125 -0.75 0.46875q-0.359375 0.140625 -0.78125 0.140625q-0.671875 0 -1.046875 -0.328125q-0.359375 -0.34375 -0.359375 -0.859375q0 -0.3125 0.125 -0.5625q0.140625 -0.25 0.359375 -0.390625q0.234375 -0.15625 0.515625 -0.234375q0.203125 -0.0625 0.625 -0.109375q0.859375 -0.109375 1.25 -0.25q0.015625 -0.140625 0.015625 -0.171875q0 -0.4375 -0.203125 -0.609375q-0.265625 -0.234375 -0.796875 -0.234375q-0.5 0 -0.734375 0.171875q-0.234375 0.171875 -0.359375 0.609375l-0.6875 -0.09375q0.09375 -0.4375 0.3125 -0.703125q0.21875 -0.28125 0.625 -0.421875q0.40625 -0.15625 0.9375 -0.15625q0.53125 0 0.859375 0.125q0.34375 0.125 0.5 0.328125q0.15625 0.1875 0.21875 0.46875q0.03125 0.1875 0.03125 0.65625l0 0.9375q0 0.96875 0.046875 1.234375q0.046875 0.265625 0.171875 0.5l-0.734375 0q-0.109375 -0.21875 -0.140625 -0.515625zm-0.0625 -1.5625q-0.375 0.15625 -1.140625 0.265625q-0.4375 0.0625 -0.625 0.140625q-0.171875 0.078125 -0.265625 0.234375q-0.09375 0.140625 -0.09375 0.328125q0 0.28125 0.203125 0.46875q0.21875 0.1875 0.625 0.1875q0.40625 0 0.71875 -0.171875q0.328125 -0.1875 0.46875 -0.5q0.109375 -0.234375 0.109375 -0.703125l0 -0.25zm1.7929688 2.078125l0 -4.15625l0.640625 0l0 0.640625q0.234375 -0.453125 0.4375 -0.59375q0.21875 -0.140625 0.453125 -0.140625q0.359375 0 0.734375 0.234375l-0.25 0.65625q-0.25 -0.15625 -0.515625 -0.15625q-0.234375 0 -0.421875 0.140625q-0.171875 0.140625 -0.25 0.375q-0.125 0.375 -0.125 0.828125l0 2.171875l-0.703125 0zm4.2109375 -0.625l0.109375 0.609375q-0.296875 0.078125 -0.53125 0.078125q-0.390625 0 -0.609375 -0.125q-0.203125 -0.125 -0.296875 -0.3125q-0.078125 -0.203125 -0.078125 -0.84375l0 -2.390625l-0.515625 0l0 -0.546875l0.515625 0l0 -1.015625l0.703125 -0.421875l0 1.4375l0.703125 0l0 0.546875l-0.703125 0l0 2.4375q0 0.296875 0.03125 0.390625q0.046875 0.078125 0.125 0.125q0.078125 0.046875 0.234375 0.046875q0.125 0 0.3125 -0.015625z" fill-rule="nonzero"/>
    <path fill="#ffffff" d="m119.762566 125.31965l103.77952 0l0 39.49607l-103.77952 0z" fill-rule="evenodd"/>
    <path stroke="#999999" stroke-width="3.0" stroke-linejoin="round" stroke-linecap="butt" d="m119.762566 125.31965l103.77952 0l0 39.49607l-103.77952 0z" fill-rule="evenodd"/>
    <path fill="#000000" d="m156.73045 147.74768l0 -5.734375l4.140625 0l0 0.6875l-3.390625 0l0 1.75l3.171875 0l0 0.671875l-3.171875 0l0 1.953125l3.515625 0l0 0.671875l-4.265625 0zm4.7578125 0l1.515625 -2.15625l-1.40625 -2.0l0.875 0l0.640625 0.984375q0.1875 0.265625 0.296875 0.453125q0.171875 -0.25 0.3125 -0.453125l0.703125 -0.984375l0.828125 0l-1.421875 1.953125l1.53125 2.203125l-0.859375 0l-0.84375 -1.296875l-0.234375 -0.34375l-1.09375 1.640625l-0.84375 0zm7.171875 -0.515625q-0.390625 0.328125 -0.75 0.46875q-0.359375 0.140625 -0.78125 0.140625q-0.671875 0 -1.046875 -0.328125q-0.359375 -0.34375 -0.359375 -0.859375q0 -0.3125 0.125 -0.5625q0.140625 -0.25 0.359375 -0.390625q0.234375 -0.15625 0.515625 -0.234375q0.203125 -0.0625 0.625 -0.109375q0.859375 -0.109375 1.25 -0.25q0.015625 -0.140625 0.015625 -0.171875q0 -0.4375 -0.203125 -0.609375q-0.265625 -0.234375 -0.796875 -0.234375q-0.5 0 -0.734375 0.171875q-0.234375 0.171875 -0.359375 0.609375l-0.6875 -0.09375q0.09375 -0.4375 0.3125 -0.703125q0.21875 -0.28125 0.625 -0.421875q0.40625 -0.15625 0.9375 -0.15625q0.53125 0 0.859375 0.125q0.34375 0.125 0.5 0.328125q0.15625 0.1875 0.21875 0.46875q0.03125 0.1875 0.03125 0.65625l0 0.9375q0 0.96875 0.046875 1.234375q0.046875 0.265625 0.171875 0.5l-0.734375 0q-0.109375 -0.21875 -0.140625 -0.515625zm-0.0625 -1.5625q-0.375 0.15625 -1.140625 0.265625q-0.4375 0.0625 -0.625 0.140625q-0.171875 0.078125 -0.265625 0.234375q-0.09375 0.140625 -0.09375 0.328125q0 0.28125 0.203125 0.46875q0.21875 0.1875 0.625 0.1875q0.40625 0 0.71875 -0.171875q0.328125 -0.1875 0.46875 -0.5q0.109375 -0.234375 0.109375 -0.703125l0 -0.25zm1.8085938 2.078125l0 -4.15625l0.625 0l0 0.59375q0.203125 -0.3125 0.515625 -0.5q0.328125 -0.1875 0.75 -0.1875q0.453125 0 0.75 0.203125q0.296875 0.1875 0.421875 0.53125q0.484375 -0.734375 1.28125 -0.734375q0.609375 0 0.9375 0.34375q0.34375 0.34375 0.34375 1.0625l0 2.84375l-0.703125 0l0 -2.609375q0 -0.421875 -0.078125 -0.609375q-0.0625 -0.1875 -0.25 -0.296875q-0.171875 -0.125 -0.40625 -0.125q-0.4375 0 -0.734375 0.296875q-0.28125 0.296875 -0.28125 0.9375l0 2.40625l-0.703125 0l0 -2.703125q0 -0.46875 -0.171875 -0.703125q-0.171875 -0.234375 -0.5625 -0.234375q-0.296875 0 -0.5625 0.15625q-0.25 0.15625 -0.359375 0.46875q-0.109375 0.296875 -0.109375 0.859375l0 2.15625l-0.703125 0zm6.6640625 1.59375l0 -5.75l0.640625 0l0 0.546875q0.21875 -0.3125 0.5 -0.46875q0.296875 -0.171875 0.703125 -0.171875q0.53125 0 0.9375 0.28125q0.40625 0.265625 0.609375 0.765625q0.203125 0.5 0.203125 1.09375q0 0.640625 -0.234375 1.15625q-0.21875 0.5 -0.65625 0.78125q-0.4375 0.265625 -0.90625 0.265625q-0.359375 0 -0.640625 -0.140625q-0.28125 -0.15625 -0.453125 -0.390625l0 2.03125l-0.703125 0zm0.640625 -3.640625q0 0.796875 0.3125 1.1875q0.328125 0.375 0.796875 0.375q0.46875 0 0.796875 -0.390625q0.328125 -0.40625 0.328125 -1.234375q0 -0.796875 -0.328125 -1.1875q-0.3125 -0.390625 -0.765625 -0.390625q-0.453125 0 -0.796875 0.421875q-0.34375 0.40625 -0.34375 1.21875zm3.7929688 2.046875l0 -5.734375l0.703125 0l0 5.734375l-0.703125 0zm4.6367188 -1.34375l0.71875 0.09375q-0.171875 0.640625 -0.640625 1.0q-0.453125 0.34375 -1.1875 0.34375q-0.90625 0 -1.4375 -0.5625q-0.53125 -0.5625 -0.53125 -1.578125q0 -1.046875 0.53125 -1.625q0.546875 -0.578125 1.40625 -0.578125q0.828125 0 1.359375 0.578125q0.53125 0.5625 0.53125 1.59375q0 0.0625 -0.015625 0.1875l-3.09375 0q0.046875 0.671875 0.390625 1.046875q0.34375 0.359375 0.875 0.359375q0.375 0 0.640625 -0.203125q0.28125 -0.203125 0.453125 -0.65625zm-2.3125 -1.125l2.3125 0q-0.046875 -0.53125 -0.265625 -0.796875q-0.328125 -0.40625 -0.875 -0.40625q-0.484375 0 -0.8125 0.328125q-0.328125 0.328125 -0.359375 0.875z" fill-rule="nonzero"/>
    <path fill="#000000" fill-opacity="0.0" d="m119.762566 145.06769c-11.669296 0 -23.338585 -19.338593 -23.338585 -38.67717" fill-rule="evenodd"/>
    <path stroke="#595959" stroke-width="1.0" stroke-linejoin="round" stroke-linecap="butt" d="m119.76256 145.06767c-5.8346405 0 -11.669289 -4.8346405 -16.045273 -12.086609c-2.187996 -3.6259918 -4.011322 -7.8563004 -5.287651 -12.388779c-0.6381607 -2.266243 -1.1395798 -4.6080246 -1.481453 -6.9875717c-0.04273224 -0.29743958 -0.082969666 -0.5954895 -0.12068176 -0.89403534l-0.03894043 -0.33124542" fill-rule="evenodd"/>
    <path fill="#595959" stroke="#595959" stroke-width="1.0" stroke-linecap="butt" d="m98.43725 112.27906l-1.9244385 -4.429344l-1.3729248 4.6300735z" fill-rule="evenodd"/>
    <path fill="#000000" fill-opacity="0.0" d="m142.2994 88.72962l86.14172 0.03149414" fill-rule="evenodd"/>
    <path stroke="#595959" stroke-width="1.0" stroke-linejoin="round" stroke-linecap="butt" stroke-dasharray="4.0,3.0" d="m142.2994 88.729614l80.14172 0.029304504" fill-rule="evenodd"/>
    <path fill="#595959" stroke="#595959" stroke-width="1.0" stroke-linecap="butt" d="m222.4405 90.41065l4.5386963 -1.6500702l-4.537491 -1.6533966z" fill-rule="evenodd"/>
    <path fill="#ffffff" d="m228.45728 74.05374l91.653534 0l0 29.385826l-91.653534 0z" fill-rule="evenodd"/>
    <path stroke="#ffd966" stroke-width="3.0" stroke-linejoin="round" stroke-linecap="butt" d="m228.45728 74.05374l91.653534 0l0 29.385826l-91.653534 0z" fill-rule="evenodd"/>
    <path fill="#000000" d="m259.36218 91.42665l0 -5.734375l4.140625 0l0 0.6875l-3.390625 0l0 1.75l3.171875 0l0 0.671875l-3.171875 0l0 1.953125l3.515625 0l0 0.671875l-4.265625 0zm4.7578125 0l1.515625 -2.15625l-1.40625 -2.0l0.875 0l0.640625 0.984375q0.1875 0.265625 0.296875 0.453125q0.171875 -0.25 0.3125 -0.453125l0.703125 -0.984375l0.828125 0l-1.421875 1.953125l1.53125 2.203125l-0.859375 0l-0.84375 -1.296875l-0.234375 -0.34375l-1.09375 1.640625l-0.84375 0zm7.171875 -0.515625q-0.390625 0.328125 -0.75 0.46875q-0.359375 0.140625 -0.78125 0.140625q-0.671875 0 -1.046875 -0.328125q-0.359375 -0.34375 -0.359375 -0.859375q0 -0.3125 0.125 -0.5625q0.140625 -0.25 0.359375 -0.390625q0.234375 -0.15625 0.515625 -0.234375q0.203125 -0.0625 0.625 -0.109375q0.859375 -0.109375 1.25 -0.25q0.015625 -0.140625 0.015625 -0.171875q0 -0.4375 -0.203125 -0.609375q-0.265625 -0.234375 -0.796875 -0.234375q-0.5 0 -0.734375 0.171875q-0.234375 0.171875 -0.359375 0.609375l-0.6875 -0.09375q0.09375 -0.4375 0.3125 -0.703125q0.21875 -0.28125 0.625 -0.421875q0.40625 -0.15625 0.9375 -0.15625q0.53125 0 0.859375 0.125q0.34375 0.125 0.5 0.328125q0.15625 0.1875 0.21875 0.46875q0.03125 0.1875 0.03125 0.65625l0 0.9375q0 0.96875 0.046875 1.234375q0.046875 0.265625 0.171875 0.5l-0.734375 0q-0.109375 -0.21875 -0.140625 -0.515625zm-0.0625 -1.5625q-0.375 0.15625 -1.140625 0.265625q-0.4375 0.0625 -0.625 0.140625q-0.171875 0.078125 -0.265625 0.234375q-0.09375 0.140625 -0.09375 0.328125q0 0.28125 0.203125 0.46875q0.21875 0.1875 0.625 0.1875q0.40625 0 0.71875 -0.171875q0.328125 -0.1875 0.46875 -0.5q0.109375 -0.234375 0.109375 -0.703125l0 -0.25zm1.8085938 2.078125l0 -4.15625l0.625 0l0 0.59375q0.203125 -0.3125 0.515625 -0.5q0.328125 -0.1875 0.75 -0.1875q0.453125 0 0.75 0.203125q0.296875 0.1875 0.421875 0.53125q0.484375 -0.734375 1.28125 -0.734375q0.609375 0 0.9375 0.34375q0.34375 0.34375 0.34375 1.0625l0 2.84375l-0.703125 0l0 -2.609375q0 -0.421875 -0.078125 -0.609375q-0.0625 -0.1875 -0.25 -0.296875q-0.171875 -0.125 -0.40625 -0.125q-0.4375 0 -0.734375 0.296875q-0.28125 0.296875 -0.28125 0.9375l0 2.40625l-0.703125 0l0 -2.703125q0 -0.46875 -0.171875 -0.703125q-0.171875 -0.234375 -0.5625 -0.234375q-0.296875 0 -0.5625 0.15625q-0.25 0.15625 -0.359375 0.46875q-0.109375 0.296875 -0.109375 0.859375l0 2.15625l-0.703125 0zm6.6640625 1.59375l0 -5.75l0.640625 0l0 0.546875q0.21875 -0.3125 0.5 -0.46875q0.296875 -0.171875 0.703125 -0.171875q0.53125 0 0.9375 0.28125q0.40625 0.265625 0.609375 0.765625q0.203125 0.5 0.203125 1.09375q0 0.640625 -0.234375 1.15625q-0.21875 0.5 -0.65625 0.78125q-0.4375 0.265625 -0.90625 0.265625q-0.359375 0 -0.640625 -0.140625q-0.28125 -0.15625 -0.453125 -0.390625l0 2.03125l-0.703125 0zm0.640625 -3.640625q0 0.796875 0.3125 1.1875q0.328125 0.375 0.796875 0.375q0.46875 0 0.796875 -0.390625q0.328125 -0.40625 0.328125 -1.234375q0 -0.796875 -0.328125 -1.1875q-0.3125 -0.390625 -0.765625 -0.390625q-0.453125 0 -0.796875 0.421875q-0.34375 0.40625 -0.34375 1.21875zm3.7929688 2.046875l0 -5.734375l0.703125 0l0 5.734375l-0.703125 0zm4.6367188 -1.34375l0.71875 0.09375q-0.171875 0.640625 -0.640625 1.0q-0.453125 0.34375 -1.1875 0.34375q-0.90625 0 -1.4375 -0.5625q-0.53125 -0.5625 -0.53125 -1.578125q0 -1.046875 0.53125 -1.625q0.546875 -0.578125 1.40625 -0.578125q0.828125 0 1.359375 0.578125q0.53125 0.5625 0.53125 1.59375q0 0.0625 -0.015625 0.1875l-3.09375 0q0.046875 0.671875 0.390625 1.046875q0.34375 0.359375 0.875 0.359375q0.375 0 0.640625 -0.203125q0.28125 -0.203125 0.453125 -0.65625zm-2.3125 -1.125l2.3125 0q-0.046875 -0.53125 -0.265625 -0.796875q-0.328125 -0.40625 -0.875 -0.40625q-0.484375 0 -0.8125 0.328125q-0.328125 0.328125 -0.359375 0.875z" fill-rule="nonzero"/>
    <path fill="#000000" fill-opacity="0.0" d="m254.65048 103.42564l0.25196838 81.039375" fill-rule="evenodd"/>
    <path stroke="#595959" stroke-width="1.0" stroke-linejoin="round" stroke-linecap="butt" d="m254.65048 103.42564l0.23332214 75.039375" fill-rule="evenodd"/>
    <path fill="#595959" stroke="#595959" stroke-width="1.0" stroke-linecap="butt" d="m253.23207 178.47017l1.6658478 4.5329285l1.6376038 -4.543213z" fill-rule="evenodd"/>
    <path fill="#ffffff" d="m347.60178 263.3431l0 0c0 -12.445969 10.089447 -22.53543 22.53543 -22.53543l74.58267 0l0 0c5.976776 0 11.708771 2.3742676 15.934967 6.600479c4.226227 4.2262115 6.600464 9.958176 6.600464 15.934952l0 0l0 0c0 12.445984 -10.089447 22.53543 -22.53543 22.53543l-74.58267 0c-12.445984 0 -22.53543 -10.089447 -22.53543 -22.53543z" fill-rule="evenodd"/>
    <path stroke="#f15d22" stroke-width="3.0" stroke-linejoin="round" stroke-linecap="butt" d="m347.60178 263.3431l0 0c0 -12.445969 10.089447 -22.53543 22.53543 -22.53543l74.58267 0l0 0c5.976776 0 11.708771 2.3742676 15.934967 6.600479c4.226227 4.2262115 6.600464 9.958176 6.600464 15.934952l0 0l0 0c0 12.445984 -10.089447 22.53543 -22.53543 22.53543l-74.58267 0c-12.445984 0 -22.53543 -10.089447 -22.53543 -22.53543z" fill-rule="evenodd"/>
    <path fill="#000000" d="m388.9149 261.0231l0 -5.7343597l1.15625 0l0 2.5468597l2.34375 -2.5468597l1.546875 0l-2.15625 2.2343597l2.28125 3.5l-1.5 0l-1.578125 -2.6875l-0.9375 0.953125l0 1.734375l-1.15625 0zm5.7304688 0l0 -5.7343597l1.15625 0l0 5.7343597l-1.15625 0zm5.9257812 -2.109375l1.125 0.359375q-0.265625 0.9375 -0.875 1.390625q-0.59375 0.453125 -1.515625 0.453125q-1.140625 0 -1.875 -0.78125q-0.734375 -0.78125 -0.734375 -2.125q0 -1.4375 0.734375 -2.2187347q0.75 -0.796875 1.953125 -0.796875q1.046875 0 1.703125 0.625q0.390625 0.35935974 0.59375 1.0468597l-1.15625 0.28125q-0.09375 -0.453125 -0.421875 -0.703125q-0.3125 -0.265625 -0.78125 -0.265625q-0.640625 0 -1.03125 0.46875q-0.390625 0.453125 -0.390625 1.46875q0 1.09375 0.390625 1.5625q0.390625 0.453125 1.015625 0.453125q0.453125 0 0.78125 -0.296875q0.34375 -0.296875 0.484375 -0.921875zm2.1210938 2.109375l0 -5.7343597l1.15625 0l0 2.5468597l2.34375 -2.5468597l1.546875 0l-2.15625 2.2343597l2.28125 3.5l-1.5 0l-1.578125 -2.6875l-0.9375 0.953125l0 1.734375l-1.15625 0zm5.6367188 -1.53125l0 -1.09375l2.15625 0l0 1.09375l-2.15625 0zm2.5546875 -1.296875q0 -0.875 0.265625 -1.46875q0.203125 -0.4375 0.53125 -0.78123474q0.34375 -0.359375 0.75 -0.515625q0.53125 -0.234375 1.234375 -0.234375q1.265625 0 2.015625 0.796875q0.765625 0.78123474 0.765625 2.1718597q0 1.390625 -0.765625 2.171875q-0.75 0.78125 -2.0 0.78125q-1.28125 0 -2.046875 -0.78125q-0.75 -0.78125 -0.75 -2.140625zm1.203125 -0.046875q0 0.984375 0.4375 1.484375q0.453125 0.5 1.140625 0.5q0.703125 0 1.140625 -0.5q0.4375 -0.5 0.4375 -1.5q0 -0.984375 -0.4375 -1.46875q-0.421875 -0.484375 -1.140625 -0.484375q-0.703125 0 -1.140625 0.5q-0.4375 0.484375 -0.4375 1.46875zm5.2695312 2.875l0 -5.7343597l3.921875 0l0 0.96873474l-2.765625 0l0 1.359375l2.390625 0l0 0.96875l-2.390625 0l0 2.4375l-1.15625 0zm4.8867188 0l0 -5.7343597l3.921875 0l0 0.96873474l-2.765625 0l0 1.359375l2.390625 0l0 0.96875l-2.390625 0l0 2.4375l-1.15625 0z" fill-rule="nonzero"/>
    <path fill="#000000" d="m391.39536 271.0231l0 -5.734375l4.140625 0l0 0.6875l-3.390625 0l0 1.75l3.171875 0l0 0.671875l-3.171875 0l0 1.953125l3.515625 0l0 0.671875l-4.265625 0zm4.7578125 0l1.515625 -2.15625l-1.40625 -2.0l0.875 0l0.640625 0.984375q0.1875 0.265625 0.296875 0.453125q0.171875 -0.25 0.3125 -0.453125l0.703125 -0.984375l0.828125 0l-1.421875 1.953125l1.53125 2.203125l-0.859375 0l-0.84375 -1.296875l-0.234375 -0.34375l-1.09375 1.640625l-0.84375 0zm7.171875 -0.515625q-0.390625 0.328125 -0.75 0.46875q-0.359375 0.140625 -0.78125 0.140625q-0.671875 0 -1.046875 -0.328125q-0.359375 -0.34375 -0.359375 -0.859375q0 -0.3125 0.125 -0.5625q0.140625 -0.25 0.359375 -0.390625q0.234375 -0.15625 0.515625 -0.234375q0.203125 -0.0625 0.625 -0.109375q0.859375 -0.109375 1.25 -0.25q0.015625 -0.140625 0.015625 -0.171875q0 -0.4375 -0.203125 -0.609375q-0.265625 -0.234375 -0.796875 -0.234375q-0.5 0 -0.734375 0.171875q-0.234375 0.171875 -0.359375 0.609375l-0.6875 -0.09375q0.09375 -0.4375 0.3125 -0.703125q0.21875 -0.28125 0.625 -0.421875q0.40625 -0.15625 0.9375 -0.15625q0.53125 0 0.859375 0.125q0.34375 0.125 0.5 0.328125q0.15625 0.1875 0.21875 0.46875q0.03125 0.1875 0.03125 0.65625l0 0.9375q0 0.96875 0.046875 1.234375q0.046875 0.265625 0.171875 0.5l-0.734375 0q-0.109375 -0.21875 -0.140625 -0.515625zm-0.0625 -1.5625q-0.375 0.15625 -1.140625 0.265625q-0.4375 0.0625 -0.625 0.140625q-0.171875 0.078125 -0.265625 0.234375q-0.09375 0.140625 -0.09375 0.328125q0 0.28125 0.203125 0.46875q0.21875 0.1875 0.625 0.1875q0.40625 0 0.71875 -0.171875q0.328125 -0.1875 0.46875 -0.5q0.109375 -0.234375 0.109375 -0.703125l0 -0.25zm1.8085938 2.078125l0 -4.15625l0.625 0l0 0.59375q0.203125 -0.3125 0.515625 -0.5q0.328125 -0.1875 0.75 -0.1875q0.453125 0 0.75 0.203125q0.296875 0.1875 0.421875 0.53125q0.484375 -0.734375 1.28125 -0.734375q0.609375 0 0.9375 0.34375q0.34375 0.34375 0.34375 1.0625l0 2.84375l-0.703125 0l0 -2.609375q0 -0.421875 -0.078125 -0.609375q-0.0625 -0.1875 -0.25 -0.296875q-0.171875 -0.125 -0.40625 -0.125q-0.4375 0 -0.734375 0.296875q-0.28125 0.296875 -0.28125 0.9375l0 2.40625l-0.703125 0l0 -2.703125q0 -0.46875 -0.171875 -0.703125q-0.171875 -0.234375 -0.5625 -0.234375q-0.296875 0 -0.5625 0.15625q-0.25 0.15625 -0.359375 0.46875q-0.109375 0.296875 -0.109375 0.859375l0 2.15625l-0.703125 0zm6.6640625 1.59375l0 -5.75l0.640625 0l0 0.546875q0.21875 -0.3125 0.5 -0.46875q0.296875 -0.171875 0.703125 -0.171875q0.53125 0 0.9375 0.28125q0.40625 0.265625 0.609375 0.765625q0.203125 0.5 0.203125 1.09375q0 0.640625 -0.234375 1.15625q-0.21875 0.5 -0.65625 0.78125q-0.4375 0.265625 -0.90625 0.265625q-0.359375 0 -0.640625 -0.140625q-0.28125 -0.15625 -0.453125 -0.390625l0 2.03125l-0.703125 0zm0.640625 -3.640625q0 0.796875 0.3125 1.1875q0.328125 0.375 0.796875 0.375q0.46875 0 0.796875 -0.390625q0.328125 -0.40625 0.328125 -1.234375q0 -0.796875 -0.328125 -1.1875q-0.3125 -0.390625 -0.765625 -0.390625q-0.453125 0 -0.796875 0.421875q-0.34375 0.40625 -0.34375 1.21875zm3.7929688 2.046875l0 -5.734375l0.703125 0l0 5.734375l-0.703125 0zm4.6367188 -1.34375l0.71875 0.09375q-0.171875 0.640625 -0.640625 1.0q-0.453125 0.34375 -1.1875 0.34375q-0.90625 0 -1.4375 -0.5625q-0.53125 -0.5625 -0.53125 -1.578125q0 -1.046875 0.53125 -1.625q0.546875 -0.578125 1.40625 -0.578125q0.828125 0 1.359375 0.578125q0.53125 0.5625 0.53125 1.59375q0 0.0625 -0.015625 0.1875l-3.09375 0q0.046875 0.671875 0.390625 1.046875q0.34375 0.359375 0.875 0.359375q0.375 0 0.640625 -0.203125q0.28125 -0.203125 0.453125 -0.65625zm-2.3125 -1.125l2.3125 0q-0.046875 -0.53125 -0.265625 -0.796875q-0.328125 -0.40625 -0.875 -0.40625q-0.484375 0 -0.8125 0.328125q-0.328125 0.328125 -0.359375 0.875zm4.1210938 2.46875l0 -0.796875l0.796875 0l0 0.796875l-0.796875 0z" fill-rule="nonzero"/>
    <path fill="#000000" fill-opacity="0.0" d="m274.27896 223.02815l36.661407 0l0 40.314957l36.661407 0" fill-rule="evenodd"/>
    <path stroke="#595959" stroke-width="1.0" stroke-linejoin="round" stroke-linecap="butt" d="m274.27896 223.02815l36.661407 0l0 40.314957l30.661407 0" fill-rule="evenodd"/>
    <path fill="#595959" stroke="#595959" stroke-width="1.0" stroke-linecap="butt" d="m341.60178 264.99484l4.5381165 -1.6517334l-4.5381165 -1.6517334z" fill-rule="evenodd"/>
    <path fill="#ffffff" d="m476.2325 383.5088l0 0c0 -8.114685 6.578247 -14.692932 14.692902 -14.692932l78.96063 0c3.8967896 0 7.634033 1.5480042 10.389465 4.303467c2.7554321 2.7554626 4.303467 6.4926453 4.303467 10.389465l0 0l0 0c0 8.114655 -6.578247 14.692902 -14.692932 14.692902l-78.96063 0l0 0c-8.114655 0 -14.692902 -6.578247 -14.692902 -14.692902z" fill-rule="evenodd"/>
    <path stroke="#6cb33e" stroke-width="3.0" stroke-linejoin="round" stroke-linecap="butt" d="m476.2325 383.5088l0 0c0 -8.114685 6.578247 -14.692932 14.692902 -14.692932l78.96063 0c3.8967896 0 7.634033 1.5480042 10.389465 4.303467c2.7554321 2.7554626 4.303467 6.4926453 4.303467 10.389465l0 0l0 0c0 8.114655 -6.578247 14.692902 -14.692932 14.692902l-78.96063 0l0 0c-8.114655 0 -14.692902 -6.578247 -14.692902 -14.692902z" fill-rule="evenodd"/>
    <path fill="#000000" d="m492.59128 386.18878l0 -5.734375l3.859375 0l0 0.6875l-3.09375 0l0 1.765625l2.6875 0l0 0.671875l-2.6875 0l0 2.609375l-0.765625 0zm4.4960938 -2.078125q0 -1.15625 0.640625 -1.703125q0.53125 -0.46875 1.3125 -0.46875q0.84375 0 1.390625 0.5625q0.546875 0.5625 0.546875 1.546875q0 0.8125 -0.25 1.265625q-0.234375 0.453125 -0.703125 0.71875q-0.453125 0.25 -0.984375 0.25q-0.875 0 -1.421875 -0.5625q-0.53125 -0.5625 -0.53125 -1.609375zm0.71875 0q0 0.796875 0.34375 1.203125q0.359375 0.390625 0.890625 0.390625q0.515625 0 0.859375 -0.390625q0.359375 -0.40625 0.359375 -1.21875q0 -0.78125 -0.359375 -1.171875q-0.34375 -0.390625 -0.859375 -0.390625q-0.53125 0 -0.890625 0.390625q-0.34375 0.390625 -0.34375 1.1875zm6.7148438 2.078125l0 -0.609375q-0.484375 0.703125 -1.3125 0.703125q-0.375 0 -0.703125 -0.140625q-0.3125 -0.140625 -0.46875 -0.34375q-0.140625 -0.21875 -0.203125 -0.53125q-0.046875 -0.203125 -0.046875 -0.65625l0 -2.578125l0.703125 0l0 2.3125q0 0.546875 0.046875 0.734375q0.0625 0.28125 0.265625 0.4375q0.21875 0.15625 0.546875 0.15625q0.3125 0 0.578125 -0.15625q0.28125 -0.171875 0.390625 -0.4375q0.125 -0.28125 0.125 -0.8125l0 -2.234375l0.703125 0l0 4.15625l-0.625 0zm1.7304688 0l0 -4.15625l0.625 0l0 0.59375q0.46875 -0.6875 1.328125 -0.6875q0.375 0 0.6875 0.140625q0.3125 0.140625 0.46875 0.359375q0.15625 0.21875 0.21875 0.515625q0.046875 0.1875 0.046875 0.6875l0 2.546875l-0.703125 0l0 -2.53125q0 -0.421875 -0.09375 -0.625q-0.078125 -0.21875 -0.296875 -0.34375q-0.203125 -0.140625 -0.484375 -0.140625q-0.4375 0 -0.765625 0.296875q-0.328125 0.28125 -0.328125 1.078125l0 2.265625l-0.703125 0zm7.1367493 0l0 -0.53125q-0.390625 0.625 -1.15625 0.625q-0.5000305 0 -0.9219055 -0.265625q-0.40625 -0.28125 -0.640625 -0.765625q-0.21875 -0.5 -0.21875 -1.140625q0 -0.609375 0.203125 -1.109375q0.203125 -0.515625 0.609375 -0.78125q0.421875 -0.28125 0.9375305 -0.28125q0.375 0 0.65625 0.171875q0.296875 0.15625 0.484375 0.40625l0 -2.0625l0.703125 0l0 5.734375l-0.65625 0zm-2.2187805 -2.078125q0 0.796875 0.328125 1.203125q0.34375 0.390625 0.7969055 0.390625q0.46875 0 0.78125 -0.375q0.328125 -0.375 0.328125 -1.15625q0 -0.84375 -0.328125 -1.234375q-0.328125 -0.40625 -0.8125 -0.40625q-0.46878052 0 -0.7812805 0.390625q-0.3125 0.375 -0.3125 1.1875zm6.6836243 1.5625q-0.390625 0.328125 -0.75 0.46875q-0.359375 0.140625 -0.78125 0.140625q-0.671875 0 -1.046875 -0.328125q-0.359375 -0.34375 -0.359375 -0.859375q0 -0.3125 0.125 -0.5625q0.140625 -0.25 0.359375 -0.390625q0.234375 -0.15625 0.515625 -0.234375q0.203125 -0.0625 0.625 -0.109375q0.859375 -0.109375 1.25 -0.25q0.015625 -0.140625 0.015625 -0.171875q0 -0.4375 -0.203125 -0.609375q-0.265625 -0.234375 -0.796875 -0.234375q-0.5 0 -0.734375 0.171875q-0.234375 0.171875 -0.359375 0.609375l-0.6875 -0.09375q0.09375 -0.4375 0.3125 -0.703125q0.21875 -0.28125 0.625 -0.421875q0.40625 -0.15625 0.9375 -0.15625q0.53125 0 0.859375 0.125q0.34375 0.125 0.5 0.328125q0.15625 0.1875 0.21875 0.46875q0.03125 0.1875 0.03125 0.65625l0 0.9375q0 0.96875 0.046875 1.234375q0.046875 0.265625 0.171875 0.5l-0.734375 0q-0.109375 -0.21875 -0.140625 -0.515625zm-0.0625 -1.5625q-0.375 0.15625 -1.140625 0.265625q-0.4375 0.0625 -0.625 0.140625q-0.171875 0.078125 -0.265625 0.234375q-0.09375 0.140625 -0.09375 0.328125q0 0.28125 0.203125 0.46875q0.21875 0.1875 0.625 0.1875q0.40625 0 0.71875 -0.171875q0.328125 -0.1875 0.46875 -0.5q0.109375 -0.234375 0.109375 -0.703125l0 -0.25zm3.3398438 1.453125l0.109375 0.609375q-0.296875 0.078125 -0.53125 0.078125q-0.390625 0 -0.609375 -0.125q-0.203125 -0.125 -0.296875 -0.3125q-0.078125 -0.203125 -0.078125 -0.84375l0 -2.390625l-0.515625 0l0 -0.546875l0.515625 0l0 -1.015625l0.703125 -0.421875l0 1.4375l0.703125 0l0 0.546875l-0.703125 0l0 2.4375q0 0.296875 0.03125 0.390625q0.046875 0.078125 0.125 0.125q0.078125 0.046875 0.234375 0.046875q0.125 0 0.3125 -0.015625zm0.69140625 -4.296875l0 -0.8125l0.703125 0l0 0.8125l-0.703125 0zm0 4.921875l0 -4.15625l0.703125 0l0 4.15625l-0.703125 0zm1.5117188 -2.078125q0 -1.15625 0.640625 -1.703125q0.53125 -0.46875 1.3125 -0.46875q0.84375 0 1.390625 0.5625q0.546875 0.5625 0.546875 1.546875q0 0.8125 -0.25 1.265625q-0.234375 0.453125 -0.703125 0.71875q-0.453125 0.25 -0.984375 0.25q-0.875 0 -1.421875 -0.5625q-0.53125 -0.5625 -0.53125 -1.609375zm0.71875 0q0 0.796875 0.34375 1.203125q0.359375 0.390625 0.890625 0.390625q0.515625 0 0.859375 -0.390625q0.359375 -0.40625 0.359375 -1.21875q0 -0.78125 -0.359375 -1.171875q-0.34375 -0.390625 -0.859375 -0.390625q-0.53125 0 -0.890625 0.390625q-0.34375 0.390625 -0.34375 1.1875zm3.9960938 2.078125l0 -4.15625l0.625 0l0 0.59375q0.46875 -0.6875 1.328125 -0.6875q0.375 0 0.6875 0.140625q0.3125 0.140625 0.46875 0.359375q0.15625 0.21875 0.21875 0.515625q0.046875 0.1875 0.046875 0.6875l0 2.546875l-0.703125 0l0 -2.53125q0 -0.421875 -0.09375 -0.625q-0.078125 -0.21875 -0.296875 -0.34375q-0.203125 -0.140625 -0.484375 -0.140625q-0.4375 0 -0.765625 0.296875q-0.328125 0.28125 -0.328125 1.078125l0 2.265625l-0.703125 0zm7.1523438 -0.515625q-0.390625 0.328125 -0.75 0.46875q-0.359375 0.140625 -0.78125 0.140625q-0.671875 0 -1.046875 -0.328125q-0.359375 -0.34375 -0.359375 -0.859375q0 -0.3125 0.125 -0.5625q0.140625 -0.25 0.359375 -0.390625q0.234375 -0.15625 0.515625 -0.234375q0.203125 -0.0625 0.625 -0.109375q0.859375 -0.109375 1.25 -0.25q0.015625 -0.140625 0.015625 -0.171875q0 -0.4375 -0.203125 -0.609375q-0.265625 -0.234375 -0.796875 -0.234375q-0.5 0 -0.734375 0.171875q-0.234375 0.171875 -0.359375 0.609375l-0.6875 -0.09375q0.09375 -0.4375 0.3125 -0.703125q0.21875 -0.28125 0.625 -0.421875q0.40625 -0.15625 0.9375 -0.15625q0.53125 0 0.859375 0.125q0.34375 0.125 0.5 0.328125q0.15625 0.1875 0.21875 0.46875q0.03125 0.1875 0.03125 0.65625l0 0.9375q0 0.96875 0.046875 1.234375q0.046875 0.265625 0.171875 0.5l-0.734375 0q-0.109375 -0.21875 -0.140625 -0.515625zm-0.0625 -1.5625q-0.375 0.15625 -1.140625 0.265625q-0.4375 0.0625 -0.625 0.140625q-0.171875 0.078125 -0.265625 0.234375q-0.09375 0.140625 -0.09375 0.328125q0 0.28125 0.203125 0.46875q0.21875 0.1875 0.625 0.1875q0.40625 0 0.71875 -0.171875q0.328125 -0.1875 0.46875 -0.5q0.109375 -0.234375 0.109375 -0.703125l0 -0.25zm1.7929688 2.078125l0 -5.734375l0.703125 0l0 5.734375l-0.703125 0zm5.4179688 0l0 -5.046875l-1.890625 0l0 -0.6875l4.546875 0l0 0.6875l-1.90625 0l0 5.046875l-0.75 0zm3.0273438 0l0 -4.15625l0.640625 0l0 0.640625q0.234375 -0.453125 0.4375 -0.59375q0.21875 -0.140625 0.453125 -0.140625q0.359375 0 0.734375 0.234375l-0.25 0.65625q-0.25 -0.15625 -0.515625 -0.15625q-0.234375 0 -0.421875 0.140625q-0.171875 0.140625 -0.25 0.375q-0.125 0.375 -0.125 0.828125l0 2.171875l-0.703125 0zm5.3828125 -0.515625q-0.390625 0.328125 -0.75 0.46875q-0.359375 0.140625 -0.78125 0.140625q-0.671875 0 -1.046875 -0.328125q-0.359375 -0.34375 -0.359375 -0.859375q0 -0.3125 0.125 -0.5625q0.140625 -0.25 0.359375 -0.390625q0.234375 -0.15625 0.515625 -0.234375q0.203125 -0.0625 0.625 -0.109375q0.859375 -0.109375 1.25 -0.25q0.015625 -0.140625 0.015625 -0.171875q0 -0.4375 -0.203125 -0.609375q-0.265625 -0.234375 -0.796875 -0.234375q-0.5 0 -0.734375 0.171875q-0.234375 0.171875 -0.359375 0.609375l-0.6875 -0.09375q0.09375 -0.4375 0.3125 -0.703125q0.21875 -0.28125 0.625 -0.421875q0.40625 -0.15625 0.9375 -0.15625q0.53125 0 0.859375 0.125q0.34375 0.125 0.5 0.328125q0.15625 0.1875 0.21875 0.46875q0.03125 0.1875 0.03125 0.65625l0 0.9375q0 0.96875 0.046875 1.234375q0.046875 0.265625 0.171875 0.5l-0.734375 0q-0.109375 -0.21875 -0.140625 -0.515625zm-0.0625 -1.5625q-0.375 0.15625 -1.140625 0.265625q-0.4375 0.0625 -0.625 0.140625q-0.171875 0.078125 -0.265625 0.234375q-0.09375 0.140625 -0.09375 0.328125q0 0.28125 0.203125 0.46875q0.21875 0.1875 0.625 0.1875q0.40625 0 0.71875 -0.171875q0.328125 -0.1875 0.46875 -0.5q0.109375 -0.234375 0.109375 -0.703125l0 -0.25zm1.8085938 -2.84375l0 -0.8125l0.703125 0l0 0.8125l-0.703125 0zm0 4.921875l0 -4.15625l0.703125 0l0 4.15625l-0.703125 0zm1.7773438 0l0 -4.15625l0.625 0l0 0.59375q0.46875 -0.6875 1.328125 -0.6875q0.375 0 0.6875 0.140625q0.3125 0.140625 0.46875 0.359375q0.15625 0.21875 0.21875 0.515625q0.046875 0.1875 0.046875 0.6875l0 2.546875l-0.703125 0l0 -2.53125q0 -0.421875 -0.09375 -0.625q-0.078125 -0.21875 -0.296875 -0.34375q-0.203125 -0.140625 -0.484375 -0.140625q-0.4375 0 -0.765625 0.296875q-0.328125 0.28125 -0.328125 1.078125l0 2.265625l-0.703125 0zm4.4492188 -4.921875l0 -0.8125l0.703125 0l0 0.8125l-0.703125 0zm0 4.921875l0 -4.15625l0.703125 0l0 4.15625l-0.703125 0zm1.7773438 0l0 -4.15625l0.625 0l0 0.59375q0.46875 -0.6875 1.328125 -0.6875q0.375 0 0.6875 0.140625q0.3125 0.140625 0.46875 0.359375q0.15625 0.21875 0.21875 0.515625q0.046875 0.1875 0.046875 0.6875l0 2.546875l-0.703125 0l0 -2.53125q0 -0.421875 -0.09375 -0.625q-0.078125 -0.21875 -0.296875 -0.34375q-0.203125 -0.140625 -0.484375 -0.140625q-0.4375 0 -0.765625 0.296875q-0.328125 0.28125 -0.328125 1.078125l0 2.265625l-0.703125 0zm4.3242188 0.34375l0.671875 0.109375q0.046875 0.3125 0.25 0.453125q0.25 0.203125 0.703125 0.203125q0.5 0 0.765625 -0.203125q0.265625 -0.1875 0.359375 -0.546875q0.046875 -0.21875 0.046875 -0.90625q-0.46875 0.546875 -1.15625 0.546875q-0.84375 0 -1.3125 -0.609375q-0.46875 -0.625 -0.46875 -1.484375q0 -0.59375 0.203125 -1.09375q0.21875 -0.515625 0.625 -0.78125q0.40625 -0.28125 0.96875 -0.28125q0.734375 0 1.203125 0.59375l0 -0.5l0.65625 0l0 3.59375q0 0.96875 -0.203125 1.375q-0.203125 0.40625 -0.625 0.640625q-0.421875 0.234375 -1.046875 0.234375q-0.75 0 -1.203125 -0.34375q-0.453125 -0.328125 -0.4375 -1.0zm0.578125 -2.5q0 0.828125 0.3125 1.203125q0.328125 0.375 0.828125 0.375q0.484375 0 0.8125 -0.375q0.328125 -0.375 0.328125 -1.171875q0 -0.765625 -0.34375 -1.140625q-0.34375 -0.390625 -0.8125 -0.390625q-0.46875 0 -0.796875 0.375q-0.328125 0.375 -0.328125 1.125z" fill-rule="nonzero"/>
    <path fill="#6cb33f" d="m9.0141735 58.591427l0 -44.94488l34.23622 0l0 44.94488z" fill-rule="evenodd"/>
  </g>
</svg>