<svg xmlns="http://www.w3.org/2000/svg" viewBox="0 0 240.4 60" enable-background="new 0 0 240.4 60"><path d="M68.3 32.2c.2.6.4 1.2.8 1.7s.8.9 1.3 1.2c.5.3 1.2.5 2 .5 1.2 0 2.1-.3 2.7-.9.7-.6 1.1-1.4 1.4-2.4h1.6c-.3 1.5-1 2.6-1.9 3.5-.9.8-2.2 1.2-3.9 1.2-1 0-1.9-.2-2.7-.5-.8-.4-1.4-.9-1.8-1.5-.5-.6-.8-1.4-1.1-2.2-.2-.8-.3-1.7-.3-2.7 0-.9.1-1.7.3-2.5.2-.8.6-1.6 1.1-2.2.5-.7 1.1-1.2 1.8-1.6.8-.4 1.7-.6 2.7-.6 1.1 0 2 .2 2.7.6.7.4 1.4 1 1.8 1.7.5.7.8 1.5 1 2.4.2.9.3 1.8.3 2.7h-10.1c0 .4.1 1 .3 1.6zm7.9-4.9c-.2-.6-.5-1.1-.8-1.5-.4-.4-.8-.8-1.3-1-.5-.3-1.1-.4-1.7-.4-.7 0-1.2.1-1.8.4-.5.3-.9.6-1.3 1s-.6.9-.9 1.5c-.2.6-.4 1.2-.4 1.7h8.5c0-.5-.1-1.1-.3-1.7zm5.4-3.9v2.3h.1c.3-.8.8-1.4 1.6-1.9s1.6-.7 2.6-.7c.9 0 1.7.1 2.3.4.6.2 1.1.6 1.5 1 .4.4.6 1 .8 1.6.2.6.2 1.3.2 2.1v8.4h-1.7v-8.2c0-.6-.1-1.1-.2-1.6s-.3-.9-.5-1.3c-.3-.4-.6-.6-1-.8-.4-.2-1-.3-1.6-.3-.6 0-1.2.1-1.7.3-.5.2-.9.5-1.3.9-.3.4-.6.9-.8 1.4-.2.6-.3 1.2-.3 1.8v7.7h-1.6v-13.1h1.6zm16.5 0v1.3h-2.7v8.9c0 .5.1.9.2 1.2.1.3.5.5 1.1.5.5 0 .9 0 1.4-.1v1.3h-1.4c-1.1 0-1.8-.2-2.2-.6-.4-.4-.6-1.2-.6-2.3v-9h-2.3v-1.3h2.3v-3.3h1.6v3.4h2.6zm2.3 8.8c.2.6.4 1.2.8 1.7s.8.9 1.3 1.2c.5.3 1.2.5 2 .5 1.2 0 2.1-.3 2.7-.9.7-.6 1.1-1.4 1.4-2.4h1.6c-.3 1.5-1 2.6-1.9 3.5-.9.8-2.2 1.2-3.9 1.2-1 0-1.9-.2-2.7-.5-.8-.4-1.4-.9-1.8-1.5-.5-.6-.8-1.4-1.1-2.2-.2-.8-.3-1.7-.3-2.7 0-.9.1-1.7.3-2.5.2-.8.6-1.6 1.1-2.2.5-.7 1.1-1.2 1.8-1.6.8-.4 1.7-.6 2.7-.6 1.1 0 2 .2 2.7.6.7.4 1.4 1 1.8 1.7.5.7.8 1.5 1 2.4.2.9.3 1.8.3 2.7h-10.1c.1.4.2 1 .3 1.6zm8-4.9c-.2-.6-.5-1.1-.8-1.5-.4-.4-.8-.8-1.3-1-.5-.3-1.1-.4-1.7-.4-.7 0-1.2.1-1.8.4-.5.3-.9.6-1.3 1s-.6.9-.9 1.5c-.2.6-.4 1.2-.4 1.7h8.5c0-.5-.2-1.1-.3-1.7zm5.2-3.9v3.1h.1c.4-1.1 1-1.9 1.9-2.5.9-.6 1.9-.8 3.1-.8v1.6c-.7 0-1.4.1-2 .3-.6.2-1.1.6-1.5 1-.4.4-.8.9-1 1.5-.2.6-.4 1.2-.4 1.9v7h-1.6v-13.1h1.4zm7.9 0v2.5h.1c.4-.9 1-1.6 1.8-2.1s1.8-.8 2.9-.8c1 0 1.9.2 2.6.6.7.4 1.4.9 1.8 1.5.5.6.9 1.4 1.1 2.2.2.8.4 1.7.4 2.7 0 .9-.1 1.8-.4 2.7-.2.8-.6 1.6-1.1 2.2-.5.6-1.1 1.1-1.8 1.5-.7.4-1.6.5-2.6.5-.5 0-1-.1-1.4-.2-.5-.1-.9-.3-1.3-.5s-.8-.5-1.1-.9c-.3-.4-.6-.8-.7-1.2h-.1v7.3h-1.7v-18h1.5zm8.8 4.6c-.2-.7-.4-1.3-.8-1.8-.3-.5-.8-1-1.3-1.3-.5-.3-1.2-.5-2-.5-.9 0-1.6.2-2.2.5-.6.3-1.1.7-1.4 1.2-.4.5-.6 1.1-.8 1.8-.1.7-.2 1.4-.2 2.1 0 .7.1 1.4.2 2 .2.7.4 1.3.8 1.8s.8 1 1.4 1.3c.6.3 1.3.5 2.2.5.8 0 1.4-.2 2-.5.5-.3 1-.8 1.3-1.3.3-.5.6-1.1.8-1.8.2-.7.2-1.3.2-2s-.1-1.4-.2-2zm5.2-4.6v3.1h.1c.4-1.1 1-1.9 1.9-2.5.9-.6 1.9-.8 3.1-.8v1.6c-.7 0-1.4.1-2 .3-.6.2-1.1.6-1.5 1-.4.4-.8.9-1 1.5-.2.6-.4 1.2-.4 1.9v7h-1.7v-13.1h1.5zm18.4 2.6c-.2-.4-.4-.7-.8-.9-.3-.2-.7-.4-1.1-.5-.4-.1-.8-.2-1.3-.2-.4 0-.7 0-1.1.1-.4.1-.7.2-1 .4-.3.2-.6.4-.7.7-.2.3-.3.6-.3 1.1 0 .4.1.7.3.9.2.2.4.5.7.6.3.2.6.3.9.4l.9.3 2.1.5c.5.1.9.2 1.4.4.4.2.8.4 1.2.7.3.3.6.6.9 1.1.2.4.3.9.3 1.5 0 .7-.2 1.3-.5 1.8s-.7.9-1.2 1.2c-.5.3-1.1.5-1.7.7-.6.1-1.2.2-1.9.2-1.5 0-2.8-.4-3.8-1.1-1-.7-1.5-1.9-1.6-3.5h1.6c.1 1.1.5 1.9 1.2 2.5.7.6 1.6.8 2.7.8.4 0 .8 0 1.2-.1.4-.1.8-.2 1.2-.4.4-.2.6-.5.9-.8.2-.3.3-.7.3-1.2 0-.4-.1-.7-.2-1-.2-.3-.4-.5-.7-.7-.3-.2-.6-.3-.9-.4-.3-.1-.7-.2-1.1-.3l-2.1-.5c-.5-.1-1-.3-1.5-.5-.4-.2-.8-.4-1.2-.7-.3-.3-.6-.6-.8-1-.2-.4-.3-.9-.3-1.4 0-.7.1-1.2.4-1.7.3-.5.7-.9 1.2-1.1.5-.3 1-.5 1.6-.6.6-.1 1.2-.2 1.7-.2.7 0 1.3.1 1.8.3.6.2 1.1.4 1.5.8.4.4.8.8 1 1.3.3.5.4 1.1.4 1.9h-1.6c.2-.6.1-1 0-1.4zm5.3 6.2c.2.6.4 1.2.8 1.7s.8.9 1.3 1.2c.5.3 1.2.5 2 .5 1.2 0 2.1-.3 2.7-.9.7-.6 1.1-1.4 1.4-2.4h1.6c-.3 1.5-1 2.6-1.9 3.5-.9.8-2.2 1.2-3.9 1.2-1 0-1.9-.2-2.7-.5-.8-.4-1.4-.9-1.8-1.5-.5-.6-.8-1.4-1.1-2.2-.2-.8-.3-1.7-.3-2.7 0-.9.1-1.7.3-2.5.2-.8.6-1.6 1.1-2.2.5-.7 1.1-1.2 1.8-1.6.8-.4 1.7-.6 2.7-.6 1.1 0 1.9.2 2.7.6.7.4 1.4 1 1.8 1.7.5.7.8 1.5 1 2.4.2.9.3 1.8.3 2.7h-10c0 .4.1 1 .2 1.6zm8-4.9c-.2-.6-.5-1.1-.8-1.5-.4-.4-.8-.8-1.3-1-.5-.3-1.1-.4-1.7-.4-.7 0-1.2.1-1.8.4-.5.3-.9.6-1.3 1s-.6.9-.9 1.5c-.2.6-.4 1.2-.4 1.7h8.5c0-.5-.1-1.1-.3-1.7zm7.5-8.4v6.3h.1c.5-.8 1-1.3 1.8-1.7.7-.3 1.4-.5 2.1-.5 1 0 1.8.1 2.4.4.6.3 1.1.6 1.5 1.1.4.5.6 1 .8 1.7.1.7.2 1.4.2 2.2v8.1h-3.6v-7.4c0-1.1-.2-1.9-.5-2.4s-.9-.8-1.8-.8c-1 0-1.7.3-2.1.9-.4.6-.7 1.5-.7 2.9v6.9h-3.6v-17.7h3.4zm14.5 14.5c.5.5 1.3.8 2.3.8.7 0 1.4-.2 1.9-.5.5-.4.8-.8 1-1.2h3.2c-.5 1.6-1.3 2.7-2.3 3.4-1.1.7-2.3 1-3.8 1-1 0-2-.2-2.8-.5-.8-.3-1.5-.8-2.1-1.4-.6-.6-1-1.3-1.3-2.2-.3-.8-.5-1.8-.5-2.8 0-1 .2-1.9.5-2.8.3-.8.8-1.6 1.4-2.2.6-.6 1.3-1.1 2.1-1.5.8-.4 1.7-.5 2.7-.5 1.1 0 2.1.2 2.9.6.8.4 1.5 1 2 1.7s.9 1.6 1.2 2.5c.2.9.3 1.9.3 2.9h-9.5c0 1.3.3 2.2.8 2.7zm4.1-6.9c-.4-.5-1.1-.7-2-.7-.6 0-1.1.1-1.4.3-.4.2-.7.4-.9.7-.2.3-.4.6-.5.9l-.2.9h5.9c-.2-.9-.5-1.6-.9-2.1zm6.6-1.2c.4-.6.8-1 1.4-1.3.6-.3 1.2-.6 1.9-.7.7-.1 1.4-.2 2.2-.2.7 0 1.3 0 2 .1s1.3.3 1.9.5c.6.3 1 .6 1.4 1.1.4.5.5 1.1.5 1.9v6.8c0 .6 0 1.2.1 1.7s.2.9.4 1.2h-3.7l-.2-.6-.1-.6c-.6.6-1.3 1-2 1.2-.8.2-1.6.4-2.4.4-.6 0-1.2-.1-1.8-.2-.5-.2-1-.4-1.4-.7-.4-.3-.7-.7-1-1.2-.2-.5-.3-1.1-.3-1.8s.1-1.4.4-1.8c.3-.5.6-.9 1-1.2.4-.3.9-.5 1.4-.7.5-.1 1.1-.3 1.6-.3.5-.1 1.1-.2 1.6-.2.5-.1 1-.1 1.4-.2.4-.1.7-.3 1-.4.2-.2.3-.5.3-.9s-.1-.7-.2-.9c-.1-.2-.3-.4-.5-.5l-.7-.3-.9-.1c-.7 0-1.3.2-1.7.5-.4.3-.6.8-.7 1.5h-3.6c.1-.8.3-1.5.7-2.1zm7.1 5.1l-.7.2c-.3.1-.5.1-.8.1l-.9.1-.8.2c-.3.1-.5.2-.7.3-.2.1-.4.3-.5.5-.1.2-.2.5-.2.8 0 .3.1.6.2.8.1.2.3.4.5.5.2.1.4.2.7.3.3.1.6.1.8.1.7 0 1.3-.1 1.7-.4.4-.2.7-.5.9-.9.2-.3.3-.7.3-1 0-.3.1-.6.1-.8v-1.3c-.2.4-.3.5-.6.5zm10-11.5v17.6h-3.6v-17.6h3.6zm9.6 4.5v2.4h-2.6v6.5c0 .6.1 1 .3 1.2.2.2.6.3 1.2.3h.6c.2 0 .4 0 .5-.1v2.8c-.3.1-.6.1-1 .1h-1.1c-.6 0-1.1 0-1.6-.1s-.9-.2-1.3-.4-.7-.5-.9-.9c-.2-.4-.3-.9-.3-1.6v-7.8h-2.2v-2.4h2.2v-4.5h3.6v4.5h2.6zm5-4.5v6.3h.1c.5-.8 1-1.3 1.8-1.7.7-.3 1.4-.5 2.1-.5 1 0 1.8.1 2.4.4.6.3 1.1.6 1.5 1.1.4.5.6 1 .8 1.7.1.7.2 1.4.2 2.2v8.1h-3.6v-7.4c0-1.1-.2-1.9-.5-2.4s-.9-.8-1.8-.8c-1 0-1.7.3-2.1.9-.4.6-.7 1.5-.7 2.9v6.9h-3.8v-17.7h3.6zm-87.9 0v2.6h-1.6v-2.6h1.6zm0 4.5v13.1h-1.6v-13.1h1.6z" fill="#fff"/><path fill="#FFD52E" d="M36.6 3.7l.5-3.7-14.5 3.9 2.7 6.6-4.2 4.2 8.9-2.4z"/><path fill="#FCBA2F" d="M36.6 3.7l-6.6 8.6 5.7-1.5z"/><path fill="#FFD52E" d="M22.6 3.9l-1.4-3.4-10.7 10.6 5.7 4.4-1.5 5.7 6.4-6.5z"/><path fill="#FCBA2F" d="M22.6 3.9l-1.5 10.8 4.2-4.2z"/><path fill="#FFD52E" d="M10.5 11.1l-2.9-2.3-3.9 14.6 7.1.9 1.5 5.7 2.4-8.8z"/><path fill="#FCBA2F" d="M10.5 11.1l4.2 10.1 1.5-5.7z"/><path fill="#FFD52E" d="M3.7 23.4l-3.7-.5 3.9 14.5 6.6-2.7 4.2 4.2-2.4-8.9z"/><path fill="#FCBA2F" d="M3.7 23.4l8.6 6.6-1.5-5.7z"/><path fill="#FFD52E" d="M3.9 37.4l-3.4 1.4 10.6 10.7 4.4-5.7 5.7 1.5-6.5-6.4z"/><path fill="#FCBA2F" d="M3.9 37.4l10.8 1.5-4.2-4.2z"/><path fill="#FFD52E" d="M11.1 49.5l-2.3 2.9 14.6 3.9.9-7.1 5.7-1.5-8.8-2.4z"/><path fill="#FCBA2F" d="M11.1 49.5l10.1-4.2-5.7-1.5z"/><path fill="#FFD52E" d="M23.4 56.3l-.5 3.7 14.5-3.9-2.7-6.6 4.2-4.2-8.9 2.4z"/><path fill="#FCBA2F" d="M23.4 56.3l6.6-8.6-5.7 1.5z"/><path fill="#FFD52E" d="M37.4 56.1l1.4 3.4 10.7-10.6-5.7-4.4 1.5-5.7-6.4 6.5z"/><path fill="#FCBA2F" d="M37.4 56.1l1.5-10.8-4.2 4.2z"/><path fill="#FFD52E" d="M49.5 48.9l2.9 2.3 3.9-14.6-7.1-.9-1.5-5.7-2.4 8.8z"/><path fill="#FCBA2F" d="M49.5 48.9l-4.2-10.1-1.5 5.7z"/><path fill="#FFD52E" d="M56.3 36.6l3.7.5-3.9-14.5-6.6 2.7-4.2-4.2 2.4 8.9z"/><path fill="#FCBA2F" d="M56.3 36.6l-8.6-6.6 1.5 5.7z"/><path fill="#FFD52E" d="M56.1 22.6l3.4-1.4-10.6-10.7-4.4 5.7-5.7-1.5 6.5 6.4z"/><path fill="#FCBA2F" d="M56.1 22.6l-10.8-1.5 4.2 4.2z"/><path fill="#FFD52E" d="M48.9 10.5l2.3-2.9-14.6-3.9-.9 7.1-5.7 1.5 8.8 2.4z"/><path fill="#FCBA2F" d="M48.9 10.5l-10.1 4.2 5.7 1.5z"/></svg>